<svg width="892.916992" height="490.095215" viewBox="0 0 892.917 490.095" fill="none" xmlns="http://www.w3.org/2000/svg" xmlns:xlink="http://www.w3.org/1999/xlink">
	<desc>
			Created with Pixso.
	</desc>
	<defs/>
	<g opacity="0.250000">
		<path id="Vector" d="M147.31 162.95C143.43 166.71 138.14 169 132.31 168.96C126.51 168.92 121.22 166.59 117.28 162.78" stroke="#1C186C" stroke-opacity="1.000000" stroke-width="4.639566" stroke-linejoin="round" stroke-linecap="round"/>
		<path id="Vector" d="M132.35 176.02C138.34 176.07 143.9 173.97 148.52 170.33C150.4 168.85 150.92 165.96 149.71 163.74L148.45 161.41L143.2 151.9C143.2 151.9 139.47 145.14 135.96 138.76C134.26 135.68 130.31 135.64 128.64 138.68L116.15 161.23L114.92 163.46C113.71 165.66 114.25 168.6 116.17 170.09C116.81 170.65 117.51 171.14 118.22 171.61C122.41 174.4 127.23 175.98 132.35 176.02Z" stroke="#1C186C" stroke-opacity="1.000000" stroke-width="4.639566" stroke-linejoin="round"/>
		<path id="Vector" d="M125.34 158.52C124.87 158.3 124.34 158.3 123.88 158.52C123.62 158.62 123.43 158.77 123.23 158.97C122.88 159.37 122.67 159.91 122.67 160.46C122.67 161.04 122.86 161.56 123.23 161.96C123.6 162.37 124.07 162.58 124.6 162.58C125.12 162.58 125.59 162.37 125.96 161.96C126.33 161.56 126.53 161.02 126.53 160.46C126.53 159.91 126.31 159.37 125.96 158.97C125.79 158.75 125.57 158.6 125.34 158.52Z" fill="#201D67" fill-opacity="1.000000" fill-rule="nonzero"/>
		<path id="Vector" d="M133.03 160.61C132.56 160.4 132.03 160.4 131.56 160.61C131.33 160.72 131.11 160.87 130.92 161.06C130.57 161.47 130.35 162 130.35 162.56C130.35 163.14 130.55 163.65 130.92 164.06C131.29 164.47 131.76 164.68 132.28 164.68C132.81 164.68 133.28 164.47 133.65 164.06C134.02 163.65 134.22 163.14 134.22 162.56C134.22 162 134 161.47 133.65 161.06C133.48 160.87 133.28 160.72 133.03 160.61Z" fill="#201D67" fill-opacity="1.000000" fill-rule="nonzero"/>
		<path id="Vector" d="M141.38 158.94C140.66 158.15 139.37 158.15 138.65 158.94C138.3 159.35 138.08 159.89 138.08 160.44C138.08 161.02 138.28 161.53 138.65 161.94C139.02 162.35 139.49 162.56 140.02 162.56C140.27 162.56 140.52 162.5 140.74 162.39C140.97 162.28 141.19 162.13 141.38 161.94C141.75 161.53 141.95 161.02 141.95 160.44C141.93 159.91 141.71 159.35 141.38 158.94Z" fill="#201D67" fill-opacity="1.000000" fill-rule="nonzero"/>
		<path id="Vector" d="M137.93 151.2C137.83 150.92 137.69 150.7 137.52 150.49C136.8 149.7 135.51 149.7 134.78 150.49C134.61 150.7 134.47 150.92 134.38 151.2C134.28 151.45 134.22 151.73 134.22 151.99C134.22 152.27 134.28 152.55 134.38 152.78C134.47 153.04 134.61 153.27 134.78 153.49C135.16 153.89 135.62 154.11 136.15 154.11C136.4 154.11 136.66 154.04 136.87 153.94C137.11 153.83 137.32 153.68 137.52 153.49C137.89 153.08 138.08 152.57 138.08 151.99C138.08 151.73 138.02 151.45 137.93 151.2Z" fill="#201D67" fill-opacity="1.000000" fill-rule="nonzero"/>
		<path id="Vector" d="M130.22 151.2C130.12 150.94 129.98 150.7 129.81 150.49C129.07 149.7 127.78 149.7 127.08 150.49C126.9 150.7 126.76 150.92 126.67 151.2C126.57 151.45 126.51 151.73 126.51 151.99C126.51 152.57 126.71 153.08 127.08 153.49C127.27 153.68 127.49 153.83 127.72 153.94C127.95 154.04 128.21 154.11 128.46 154.11C128.99 154.11 129.46 153.89 129.83 153.49C130 153.27 130.14 153.04 130.24 152.78C130.35 152.52 130.39 152.25 130.39 151.99C130.37 151.73 130.34 151.45 130.22 151.2Z" fill="#201D67" fill-opacity="1.000000" fill-rule="nonzero"/>
		<path id="Vector" d="M130.94 145.06C131.31 145.46 131.78 145.68 132.31 145.68C132.56 145.68 132.81 145.61 133.03 145.5C133.26 145.4 133.48 145.25 133.67 145.06C133.85 144.84 133.98 144.61 134.08 144.35C134.18 144.09 134.24 143.81 134.24 143.56C134.24 142.98 134.02 142.47 133.67 142.06C133.13 141.48 132.28 141.27 131.56 141.61C131.31 141.72 131.11 141.87 130.92 142.06C130.57 142.47 130.35 143 130.35 143.56C130.35 143.84 130.41 144.11 130.51 144.35C130.63 144.61 130.76 144.84 130.94 145.06Z" fill="#201D67" fill-opacity="1.000000" fill-rule="nonzero"/>
		<path id="Vector" d="M599.52 77.58C591.38 77.58 584.77 70.32 584.77 61.4C584.77 53.46 590 46.84 596.9 45.47C597.14 50.29 600.36 54.25 604.57 55.13C604.5 55.7 604.44 56.3 604.44 56.9C604.44 62.51 608.05 67.2 612.85 68.31C610.49 73.79 605.41 77.58 599.52 77.58Z" stroke="#1C186C" stroke-opacity="1.000000" stroke-width="4.639566" stroke-linejoin="round"/>
		<path id="Vector" d="M593.41 52.58C592.22 52.58 591.25 53.65 591.25 54.96C591.25 56.26 592.22 57.33 593.41 57.33C594.6 57.33 595.58 56.26 595.58 54.96C595.58 53.63 594.6 52.58 593.41 52.58Z" fill="#201D67" fill-opacity="1.000000" fill-rule="nonzero"/>
		<path id="Vector" d="M588.63 40.19C587.44 40.19 586.46 41.26 586.46 42.56C586.46 43.87 587.44 44.94 588.63 44.94C589.82 44.94 590.8 43.87 590.8 42.56C590.78 41.24 589.82 40.19 588.63 40.19Z" fill="#201D67" fill-opacity="1.000000" fill-rule="nonzero"/>
		<path id="Vector" d="M599.71 59.88C598.52 59.88 597.55 60.95 597.55 62.25C597.55 63.56 598.52 64.63 599.71 64.63C600.9 64.63 601.88 63.56 601.88 62.25C601.88 60.93 600.9 59.88 599.71 59.88Z" fill="#201D67" fill-opacity="1.000000" fill-rule="nonzero"/>
		<path id="Vector" d="M600.65 70C601.16 69.66 601.59 69.4 601.59 69.4C601.59 69.4 601.18 69.66 600.65 70C600.13 70.34 599.72 70.6 599.72 70.6C599.72 70.6 600.15 70.32 600.65 70Z" stroke="#1C186C" stroke-opacity="1.000000" stroke-width="4.639566" stroke-linejoin="round"/>
		<path id="Vector" d="M592.65 63.73C592.1 63.47 591.65 63.26 591.65 63.26C591.65 63.26 592.1 63.47 592.65 63.73C593.2 63.99 593.64 64.2 593.64 64.2C593.64 64.2 593.2 63.99 592.65 63.73Z" stroke="#1C186C" stroke-opacity="1.000000" stroke-width="4.639566" stroke-linejoin="round"/>
		<path id="Vector" d="M582.76 48.98C582.33 49.43 581.97 49.8 581.97 49.8C581.97 49.8 582.33 49.43 582.76 48.98C583.18 48.53 583.54 48.17 583.54 48.17C583.54 48.17 583.18 48.53 582.76 48.98Z" stroke="#1C186C" stroke-opacity="1.000000" stroke-width="4.639566" stroke-linejoin="round"/>
		<path id="Vector" d="M580 61.72C577.97 59.19 576.74 55.9 576.74 52.28C576.74 44.38 582.58 37.98 589.78 37.98C595.6 37.98 600.53 42.16 602.21 47.93" stroke="#1C186C" stroke-opacity="1.000000" stroke-width="4.639566" stroke-linejoin="round" stroke-linecap="round"/>
		<path id="Vector" d="M211.54 226.57C210.28 226.27 208.98 226.31 207.74 226.7C206.51 227.09 205.39 227.81 204.47 228.8C204.08 229.24 203.87 229.83 203.87 230.44C203.87 231.05 204.08 231.63 204.47 232.07L206.7 234.6" stroke="#1C186C" stroke-opacity="1.000000" stroke-width="4.639566" stroke-linejoin="round" stroke-linecap="round"/>
		<path id="Vector" d="M226.1 242.82C226.36 244.21 226.31 245.65 225.94 247.01C225.57 248.38 224.9 249.62 223.99 250.63C223.79 250.84 223.56 251.01 223.31 251.13C223.05 251.25 222.78 251.31 222.5 251.31C222.23 251.31 221.96 251.25 221.7 251.13C221.45 251.01 221.22 250.84 221.02 250.63L218.76 248.1" stroke="#1C186C" stroke-opacity="1.000000" stroke-width="4.639566" stroke-linejoin="round" stroke-linecap="round"/>
		<path id="Vector" d="M208.24 248.62C209.04 250.01 209.47 251.63 209.47 253.28C209.47 254.4 209.27 255.5 208.87 256.53C208.48 257.56 207.91 258.49 207.18 259.27C207.05 259.41 206.87 259.48 206.69 259.48C206.5 259.48 206.32 259.41 206.19 259.27C205.55 258.57 205.04 257.73 204.69 256.81C204.36 256.14 204.14 255.42 204.02 254.67C203.98 254.22 203.98 253.76 204.02 253.3C204.37 251.22 205.34 249.33 206.77 247.91C205.44 249.44 203.7 250.47 201.8 250.82C201.38 250.86 200.96 250.86 200.55 250.82C199.87 250.68 199.21 250.41 198.6 250.05C197.76 249.61 197 249 196.37 248.25C196.25 248.1 196.18 247.91 196.18 247.71C196.18 247.51 196.25 247.31 196.37 247.16C197.83 245.6 199.79 244.72 201.84 244.72C203.33 244.73 204.8 245.22 206.05 246.11" stroke="#1C186C" stroke-opacity="1.000000" stroke-width="4.639566" stroke-linejoin="round" stroke-linecap="round"/>
		<path id="Vector" d="M229.84 221.07C229.04 220.51 228.14 220.13 227.2 219.96C226.27 219.78 225.31 219.81 224.38 220.05C222.19 220.41 220.07 221.2 218.13 222.38C214.49 224.31 211.43 227.35 209.31 231.13C207.44 234.94 206.38 239.16 206.21 243.48C206.21 243.78 205.88 246.03 206.09 246.18L208.26 248.62C208.39 248.85 210.42 248.62 210.7 248.51C214.66 248.4 218.54 247.27 222.04 245.23C225.51 242.99 228.3 239.68 230.08 235.71C231.79 231.79 233.75 225.57 230.62 221.84C230.39 221.55 230.13 221.29 229.84 221.07Z" stroke="#1C186C" stroke-opacity="1.000000" stroke-width="4.639566" stroke-linejoin="round"/>
		<path id="Vector" d="M217.04 224.33C217.83 227.25 219.26 229.91 221.2 232.09C223.14 234.27 225.55 235.89 228.2 236.8" stroke="#1C186C" stroke-opacity="1.000000" stroke-width="4.639566" stroke-linejoin="round" stroke-linecap="round"/>
		<path id="Vector" d="M225.47 224.39C225.29 224.18 225.07 224.02 224.83 223.91C224.59 223.79 224.33 223.73 224.07 223.73C223.8 223.73 223.54 223.79 223.3 223.91C223.06 224.02 222.84 224.18 222.66 224.39C222.39 224.69 222.22 225.07 222.15 225.49C222.08 225.9 222.12 226.33 222.27 226.71C222.42 227.1 222.67 227.43 222.99 227.66C223.31 227.89 223.68 228.02 224.07 228.02C224.45 228.02 224.82 227.89 225.14 227.66C225.46 227.43 225.71 227.1 225.86 226.71C226.01 226.33 226.06 225.9 225.99 225.49C225.92 225.07 225.74 224.69 225.47 224.39Z" fill="#201D67" fill-opacity="1.000000" fill-rule="nonzero"/>
		<path id="Vector" d="M409.18 237.42L417.2 261.63L425.22 237.42" stroke="#1C186C" stroke-opacity="1.000000" stroke-width="4.639566" stroke-linejoin="round" stroke-linecap="round"/>
		<path id="Vector" d="M429.24 236.33C428.91 236.33 428.61 236.35 428.34 236.4C426.19 236.78 425.9 238.54 423.21 238.54C420.18 238.54 420.18 236.33 417.2 236.33C414.17 236.33 414.17 238.54 411.19 238.54C408.49 238.54 408.22 236.8 406.05 236.4C405.8 236.35 405.49 236.33 405.16 236.33" stroke="#1C186C" stroke-opacity="1.000000" stroke-width="4.639566" stroke-linejoin="round" stroke-linecap="round"/>
		<path id="Vector" d="M426.74 236.4C424.89 236.78 424.65 238.54 422.35 238.54C419.76 238.54 419.76 236.33 417.2 236.33C414.6 236.33 414.6 238.54 412.05 238.54C409.74 238.54 409.49 236.8 407.66 236.4C407.34 235.35 407.17 234.19 407.17 233.04C407.17 226.96 411.66 222.04 417.2 222.04C422.74 222.04 427.23 226.96 427.23 233.04C427.23 234.19 427.07 235.35 426.74 236.4Z" stroke="#1C186C" stroke-opacity="1.000000" stroke-width="4.639566" stroke-linejoin="round"/>
		<path id="Vector" d="M427.23 239.63L407.17 239.63" stroke="#1C186C" stroke-opacity="1.000000" stroke-width="4.639566" stroke-linejoin="round" stroke-linecap="round"/>
		<path id="Vector" d="M615.68 240.55L615.68 242.82L601.24 242.82L601.24 240.55L615.68 240.55Z" stroke="#1C186C" stroke-opacity="1.000000" stroke-width="4.639566" stroke-linejoin="round"/>
		<path id="Vector" d="M626.45 225.22C624.4 234.02 617.12 240.53 608.46 240.53C599.79 240.53 592.51 234.02 590.46 225.22C590.13 223.81 591.15 222.44 592.49 222.44L624.42 222.44C625.75 222.44 626.76 223.81 626.45 225.22Z" stroke="#1C186C" stroke-opacity="1.000000" stroke-width="4.639566" stroke-linejoin="round"/>
		<path id="Vector" d="M600.67 222.44C598.4 222.44 596.55 220.42 596.55 217.93C596.55 215.43 598.4 213.41 600.67 213.41C602.94 213.41 604.79 215.43 604.79 217.93C604.79 220.42 602.94 222.44 600.67 222.44Z" stroke="#1C186C" stroke-opacity="1.000000" stroke-width="4.639566" stroke-linejoin="round"/>
		<path id="Vector" d="M616.24 222.1C613.97 222.1 612.13 220.08 612.13 217.58C612.13 215.09 613.97 213.07 616.24 213.07C618.52 213.07 620.36 215.09 620.36 217.58C620.36 220.08 618.52 222.1 616.24 222.1Z" stroke="#1C186C" stroke-opacity="1.000000" stroke-width="4.639566" stroke-linejoin="round"/>
		<path id="Vector" d="M609.1 222.12C607.39 222.12 606 220.6 606 218.72C606 216.84 607.39 215.32 609.1 215.32C610.82 215.32 612.21 216.84 612.21 218.72C612.21 220.6 610.82 222.12 609.1 222.12Z" stroke="#1C186C" stroke-opacity="1.000000" stroke-width="4.639566" stroke-linejoin="round"/>
		<path id="Vector" d="M598.43 213.71L591.95 206.6" stroke="#1C186C" stroke-opacity="1.000000" stroke-width="4.639566" stroke-linejoin="round" stroke-linecap="round"/>
		<path id="Vector" d="M593 229.18L623.92 229.18" stroke="#1C186C" stroke-opacity="1.000000" stroke-width="4.639566" stroke-linejoin="round" stroke-linecap="round"/>
		<path id="Vector" d="M497.22 134.83C497.22 138.38 499.83 141.25 503.07 141.25L526.49 141.25C529.73 141.25 532.34 138.38 532.34 134.83L497.22 134.83Z" stroke="#1C186C" stroke-opacity="1.000000" stroke-width="4.639566" stroke-linejoin="round"/>
		<path id="Vector" d="M499.17 132.68L499.17 134.83L530.39 134.83L530.39 132.68C530.39 123.23 523.41 115.56 514.78 115.56C506.15 115.56 499.17 123.23 499.17 132.68Z" stroke="#1C186C" stroke-opacity="1.000000" stroke-width="4.639566" stroke-linejoin="round"/>
		<path id="Vector" d="M518.2 113.42C518.2 115.49 516.67 117.17 514.78 117.17C512.89 117.17 511.36 115.49 511.36 113.42C511.36 111.36 512.89 109.68 514.78 109.68C516.67 109.68 518.2 111.36 518.2 113.42Z" fill="#201D67" fill-opacity="1.000000" fill-rule="evenodd"/>
		<path id="Vector" d="M392.25 104.97C397.66 105.33 403.06 107.92 407.34 112.67C411.57 117.38 413.89 123.37 414.25 129.36" stroke="#1C186C" stroke-opacity="1.000000" stroke-width="4.639566" stroke-linejoin="round" stroke-linecap="round"/>
		<path id="Vector" d="M414.07 131.39L389.71 137.92C386.43 138.8 383.57 135.59 384.39 131.95L386.1 124.25L386.22 123.76L387.72 117.06L387.86 116.41L390.4 105.18L391.02 102.44C391.61 99.81 393.93 98.12 396.31 98.54C402.16 99.59 407.67 102.55 412.06 107.43C416.43 112.26 419.06 118.36 420.02 124.85C420.41 127.5 418.85 130.11 416.47 130.75L414.07 131.39Z" stroke="#1C186C" stroke-opacity="1.000000" stroke-width="4.639566" stroke-linejoin="round"/>
		<path id="Vector" d="M401.76 123.9C400.03 123.9 398.63 122.35 398.63 120.44C398.63 118.52 400.03 116.97 401.76 116.97C403.48 116.97 404.88 118.52 404.88 120.44C404.88 122.35 403.48 123.9 401.76 123.9Z" stroke="#1C186C" stroke-opacity="1.000000" stroke-width="4.639566" stroke-linejoin="round"/>
		<path id="Vector" d="M386.22 123.71L388.17 114.98C388.91 115.17 389.61 115.56 390.2 116.2C391.8 117.98 391.8 120.85 390.2 122.6C389.13 123.8 387.59 124.18 386.22 123.71Z" stroke="#1C186C" stroke-opacity="1.000000" stroke-width="4.639566" stroke-linejoin="round"/>
		<path id="Vector" d="M392.66 134.8C392.37 133.56 392.66 132.19 393.52 131.22C394.83 129.77 396.93 129.77 398.24 131.22C398.67 131.7 398.96 132.27 399.1 132.89" stroke="#1C186C" stroke-opacity="1.000000" stroke-width="4.639566" stroke-linejoin="round" stroke-linecap="round"/>
		<path id="Vector" d="M294.07 158.69C291.94 161.02 291.94 164.79 294.07 167.12C296.2 169.45 299.63 169.45 301.76 167.12L321.75 145.2C323.87 142.87 323.87 139.1 321.75 136.77C319.62 134.44 316.18 134.44 314.06 136.77L294.07 158.69Z" stroke="#1C186C" stroke-opacity="1.000000" stroke-width="4.639566" stroke-linejoin="round"/>
		<path id="Vector" d="M298.27 161.6C300.57 159.07 301.39 159.97 303.71 157.45C306.02 154.92 305.2 154.02 307.5 151.47C309.8 148.95 310.64 149.85 312.94 147.32C315.25 144.8 314.43 143.88 316.73 141.35" stroke="#1C186C" stroke-opacity="1.000000" stroke-width="4.639566" stroke-linejoin="round" stroke-linecap="round"/>
		<path id="Vector" d="M291.77 151.11C289.21 153.91 289.21 158.43 291.77 161.23L316.36 134.27C313.82 131.44 309.68 131.44 307.15 134.25L291.77 151.11Z" stroke="#1C186C" stroke-opacity="1.000000" stroke-width="4.639566" stroke-linejoin="round"/>
		<path id="Vector" d="M324.05 152.78C326.6 149.98 326.6 145.46 324.05 142.66L299.46 169.62C302 172.45 306.13 172.45 308.67 169.64L324.05 152.78Z" stroke="#1C186C" stroke-opacity="1.000000" stroke-width="4.639566" stroke-linejoin="round"/>
		<path id="Vector" d="M190.81 88.21C187.34 88.21 184.53 85.13 184.53 81.32L184.53 77.21L216.61 77.21L216.61 81.32C216.61 85.13 213.8 88.21 210.33 88.21L190.81 88.21Z" stroke="#1C186C" stroke-opacity="1.000000" stroke-width="4.639566" stroke-linejoin="round"/>
		<path id="Vector" d="M185.52 70.62C183.86 70.62 182.52 72.1 182.52 73.92C182.52 75.73 183.86 77.21 185.52 77.21L215.62 77.21C217.28 77.21 218.62 75.73 218.62 73.92C218.62 72.1 217.28 70.62 215.62 70.62L185.52 70.62Z" stroke="#1C186C" stroke-opacity="1.000000" stroke-width="4.639566" stroke-linejoin="round"/>
		<path id="Vector" d="M199.54 53.03C191.24 53.03 184.53 60.39 184.53 69.49L184.53 70.62L216.61 70.62L216.61 69.49C216.61 60.39 209.9 53.03 201.6 53.03L199.54 53.03Z" stroke="#1C186C" stroke-opacity="1.000000" stroke-width="4.639566" stroke-linejoin="round"/>
		<path id="Vector" d="M184.31 77.75C185.07 78.65 185.62 79.87 187.05 79.87C188.47 79.87 189.02 78.65 189.78 77.75" stroke="#1C186C" stroke-opacity="1.000000" stroke-width="4.639566" stroke-linejoin="round" stroke-linecap="round"/>
		<path id="Vector" d="M202.64 77.75C203.4 78.65 203.95 79.87 205.37 79.87C206.81 79.87 207.36 78.65 208.12 77.75" stroke="#1C186C" stroke-opacity="1.000000" stroke-width="4.639566" stroke-linejoin="round" stroke-linecap="round"/>
		<path id="Vector" d="M214.56 79.84C213.14 79.84 212.59 78.62 211.83 77.73" stroke="#1C186C" stroke-opacity="1.000000" stroke-width="4.639566" stroke-linejoin="round" stroke-linecap="round"/>
		<path id="Vector" d="M193.48 77.75C194.25 78.65 194.79 79.87 196.22 79.87C197.64 79.87 198.19 78.65 198.95 77.75" stroke="#1C186C" stroke-opacity="1.000000" stroke-width="4.639566" stroke-linejoin="round" stroke-linecap="round"/>
		<path id="Vector" d="M38.42 372.68C34.54 376.45 29.25 378.74 23.41 378.7C17.62 378.65 12.33 376.32 8.39 372.51" stroke="#1C186C" stroke-opacity="1.000000" stroke-width="4.639566" stroke-linejoin="round" stroke-linecap="round"/>
		<path id="Vector" d="M23.46 385.76C29.45 385.8 35.01 383.7 39.63 380.07C41.51 378.59 42.03 375.7 40.82 373.47L39.56 371.14L34.31 361.64C34.31 361.64 30.58 354.88 27.07 348.5C25.37 345.42 21.42 345.37 19.75 348.41L7.26 370.97L6.03 373.2C4.82 375.4 5.36 378.33 7.28 379.83C7.92 380.39 8.62 380.88 9.33 381.35C13.52 384.13 18.34 385.72 23.46 385.76Z" stroke="#1C186C" stroke-opacity="1.000000" stroke-width="4.639566" stroke-linejoin="round"/>
		<path id="Vector" d="M16.45 368.25C15.98 368.04 15.45 368.04 14.98 368.25C14.73 368.36 14.54 368.51 14.34 368.7C13.99 369.11 13.77 369.64 13.77 370.2C13.77 370.78 13.97 371.29 14.34 371.7C14.71 372.1 15.18 372.32 15.71 372.32C16.23 372.32 16.7 372.1 17.07 371.7C17.44 371.29 17.64 370.75 17.64 370.2C17.64 369.64 17.42 369.11 17.07 368.7C16.9 368.49 16.68 368.34 16.45 368.25Z" fill="#201D67" fill-opacity="1.000000" fill-rule="nonzero"/>
		<path id="Vector" d="M24.14 370.35C23.67 370.13 23.14 370.13 22.67 370.35C22.44 370.46 22.22 370.61 22.03 370.8C21.68 371.2 21.46 371.74 21.46 372.3C21.46 372.87 21.66 373.39 22.03 373.79C22.4 374.2 22.87 374.41 23.4 374.41C23.92 374.41 24.39 374.2 24.76 373.79C25.13 373.39 25.33 372.87 25.33 372.3C25.33 371.74 25.11 371.2 24.76 370.8C24.59 370.61 24.39 370.46 24.14 370.35Z" fill="#201D67" fill-opacity="1.000000" fill-rule="nonzero"/>
		<path id="Vector" d="M32.49 368.68C31.77 367.89 30.48 367.89 29.76 368.68C29.41 369.08 29.19 369.62 29.19 370.18C29.19 370.75 29.39 371.27 29.76 371.67C30.13 372.08 30.6 372.3 31.12 372.3C31.38 372.3 31.63 372.23 31.85 372.12C32.08 372.02 32.3 371.87 32.49 371.67C32.86 371.27 33.06 370.75 33.06 370.18C33.04 369.64 32.82 369.08 32.49 368.68Z" fill="#201D67" fill-opacity="1.000000" fill-rule="nonzero"/>
		<path id="Vector" d="M29.04 360.93C28.94 360.65 28.8 360.44 28.63 360.23C27.9 359.43 26.62 359.43 25.89 360.23C25.72 360.44 25.58 360.65 25.48 360.93C25.39 361.19 25.33 361.47 25.33 361.72C25.33 362 25.39 362.28 25.48 362.52C25.58 362.77 25.72 363.01 25.89 363.22C26.26 363.63 26.73 363.84 27.26 363.84C27.51 363.84 27.77 363.78 27.98 363.67C28.22 363.56 28.43 363.41 28.63 363.22C29 362.82 29.19 362.3 29.19 361.72C29.19 361.47 29.13 361.19 29.04 360.93Z" fill="#201D67" fill-opacity="1.000000" fill-rule="nonzero"/>
		<path id="Vector" d="M21.33 360.93C21.23 360.68 21.09 360.44 20.92 360.23C20.17 359.43 18.89 359.43 18.18 360.23C18.01 360.44 17.87 360.65 17.77 360.93C17.68 361.19 17.62 361.47 17.62 361.72C17.62 362.3 17.81 362.82 18.18 363.22C18.38 363.41 18.59 363.56 18.83 363.67C19.06 363.78 19.32 363.84 19.57 363.84C20.1 363.84 20.57 363.63 20.94 363.22C21.11 363.01 21.25 362.77 21.35 362.52C21.46 362.26 21.5 361.98 21.5 361.72C21.48 361.47 21.44 361.19 21.33 360.93Z" fill="#201D67" fill-opacity="1.000000" fill-rule="nonzero"/>
		<path id="Vector" d="M22.05 354.79C22.42 355.2 22.89 355.41 23.41 355.41C23.67 355.41 23.92 355.35 24.14 355.24C24.37 355.13 24.59 354.98 24.78 354.79C24.96 354.58 25.09 354.34 25.19 354.08C25.29 353.83 25.35 353.55 25.35 353.29C25.35 352.71 25.13 352.2 24.78 351.79C24.24 351.22 23.4 351 22.67 351.34C22.42 351.45 22.22 351.6 22.03 351.79C21.68 352.2 21.46 352.73 21.46 353.29C21.46 353.57 21.52 353.85 21.62 354.08C21.74 354.34 21.87 354.58 22.05 354.79Z" fill="#201D67" fill-opacity="1.000000" fill-rule="nonzero"/>
		<path id="Vector" d="M704.55 118C700.67 121.77 695.38 124.06 689.54 124.02C683.75 123.98 678.46 121.64 674.52 117.83" stroke="#1C186C" stroke-opacity="1.000000" stroke-width="4.639566" stroke-linejoin="round" stroke-linecap="round"/>
		<path id="Vector" d="M689.58 131.08C695.57 131.12 701.14 129.03 705.76 125.39C707.63 123.91 708.16 121.02 706.95 118.8L705.68 116.46L700.43 106.96C700.43 106.96 696.71 100.2 693.19 93.82C691.49 90.74 687.55 90.7 685.87 93.73L673.38 116.29L672.15 118.52C670.94 120.72 671.49 123.65 673.4 125.15C674.05 125.71 674.75 126.2 675.45 126.67C679.65 129.45 684.47 131.04 689.58 131.08Z" stroke="#1C186C" stroke-opacity="1.000000" stroke-width="4.639566" stroke-linejoin="round"/>
		<path id="Vector" d="M682.58 113.57C682.11 113.36 681.58 113.36 681.11 113.57C680.86 113.68 680.66 113.83 680.47 114.02C680.12 114.43 679.9 114.96 679.9 115.52C679.9 116.1 680.1 116.61 680.47 117.02C680.84 117.43 681.31 117.64 681.83 117.64C682.36 117.64 682.83 117.43 683.2 117.02C683.57 116.61 683.77 116.08 683.77 115.52C683.77 114.96 683.55 114.43 683.2 114.02C683.02 113.81 682.81 113.66 682.58 113.57Z" fill="#201D67" fill-opacity="1.000000" fill-rule="nonzero"/>
		<path id="Vector" d="M690.27 115.67C689.8 115.46 689.27 115.46 688.8 115.67C688.57 115.78 688.35 115.93 688.16 116.12C687.81 116.53 687.59 117.06 687.59 117.62C687.59 118.2 687.79 118.71 688.16 119.12C688.53 119.52 689 119.74 689.52 119.74C690.05 119.74 690.52 119.52 690.89 119.12C691.26 118.71 691.46 118.2 691.46 117.62C691.46 117.06 691.24 116.53 690.89 116.12C690.71 115.93 690.52 115.78 690.27 115.67Z" fill="#201D67" fill-opacity="1.000000" fill-rule="nonzero"/>
		<path id="Vector" d="M698.62 114C697.9 113.21 696.61 113.21 695.89 114C695.54 114.41 695.32 114.94 695.32 115.5C695.32 116.08 695.52 116.59 695.89 117C696.26 117.4 696.73 117.62 697.25 117.62C697.51 117.62 697.76 117.55 697.97 117.45C698.21 117.34 698.42 117.19 698.62 117C698.99 116.59 699.18 116.08 699.18 115.5C699.17 114.97 698.95 114.41 698.62 114Z" fill="#201D67" fill-opacity="1.000000" fill-rule="nonzero"/>
		<path id="Vector" d="M695.16 106.26C695.07 105.98 694.93 105.76 694.75 105.55C694.03 104.76 692.74 104.76 692.02 105.55C691.85 105.76 691.71 105.98 691.61 106.26C691.51 106.51 691.46 106.79 691.46 107.05C691.46 107.33 691.51 107.6 691.61 107.84C691.71 108.1 691.85 108.33 692.02 108.55C692.39 108.95 692.86 109.17 693.39 109.17C693.64 109.17 693.89 109.1 694.11 109C694.34 108.89 694.56 108.74 694.75 108.55C695.12 108.14 695.32 107.63 695.32 107.05C695.32 106.79 695.26 106.51 695.16 106.26Z" fill="#201D67" fill-opacity="1.000000" fill-rule="nonzero"/>
		<path id="Vector" d="M687.45 106.26C687.36 106 687.22 105.76 687.04 105.55C686.3 104.76 685.01 104.76 684.31 105.55C684.14 105.76 684 105.98 683.9 106.26C683.8 106.51 683.75 106.79 683.75 107.05C683.75 107.63 683.94 108.14 684.31 108.55C684.51 108.74 684.72 108.89 684.96 109C685.19 109.1 685.44 109.17 685.7 109.17C686.22 109.17 686.69 108.95 687.06 108.55C687.24 108.33 687.38 108.1 687.47 107.84C687.59 107.58 687.63 107.3 687.63 107.05C687.61 106.79 687.57 106.51 687.45 106.26Z" fill="#201D67" fill-opacity="1.000000" fill-rule="nonzero"/>
		<path id="Vector" d="M688.18 100.11C688.55 100.52 689.02 100.73 689.54 100.73C689.8 100.73 690.05 100.67 690.27 100.56C690.5 100.45 690.71 100.3 690.91 100.11C691.08 99.9 691.22 99.66 691.32 99.41C691.42 99.15 691.47 98.87 691.47 98.61C691.47 98.04 691.26 97.52 690.91 97.12C690.36 96.54 689.52 96.32 688.8 96.67C688.55 96.77 688.35 96.92 688.16 97.12C687.81 97.52 687.59 98.06 687.59 98.61C687.59 98.89 687.65 99.17 687.75 99.41C687.86 99.66 688 99.9 688.18 100.11Z" fill="#201D67" fill-opacity="1.000000" fill-rule="nonzero"/>
		<path id="Vector" d="M641.03 385.52C637.15 389.29 631.86 391.58 626.02 391.54C620.23 391.49 614.94 389.16 611 385.35" stroke="#1C186C" stroke-opacity="1.000000" stroke-width="4.639566" stroke-linejoin="round" stroke-linecap="round"/>
		<path id="Vector" d="M626.06 398.6C632.05 398.64 637.62 396.54 642.24 392.91C644.11 391.43 644.64 388.54 643.43 386.31L642.16 383.98L636.91 374.48C636.91 374.48 633.18 367.72 629.67 361.34C627.97 358.26 624.03 358.21 622.35 361.25L609.86 383.81L608.63 386.04C607.42 388.24 607.97 391.17 609.88 392.67C610.53 393.23 611.23 393.72 611.93 394.19C616.13 396.97 620.95 398.56 626.06 398.6Z" stroke="#1C186C" stroke-opacity="1.000000" stroke-width="4.639566" stroke-linejoin="round"/>
		<path id="Vector" d="M619.06 381.09C618.59 380.88 618.06 380.88 617.59 381.09C617.34 381.2 617.14 381.35 616.95 381.54C616.6 381.95 616.38 382.48 616.38 383.04C616.38 383.62 616.58 384.13 616.95 384.54C617.32 384.94 617.79 385.16 618.31 385.16C618.84 385.16 619.31 384.94 619.68 384.54C620.05 384.13 620.25 383.6 620.25 383.04C620.25 382.48 620.03 381.95 619.68 381.54C619.5 381.33 619.29 381.18 619.06 381.09Z" fill="#201D67" fill-opacity="1.000000" fill-rule="nonzero"/>
		<path id="Vector" d="M626.74 383.19C626.28 382.98 625.75 382.98 625.28 383.19C625.05 383.3 624.83 383.45 624.64 383.64C624.28 384.05 624.07 384.58 624.07 385.14C624.07 385.72 624.27 386.23 624.64 386.64C625.01 387.04 625.48 387.26 626 387.26C626.53 387.26 627 387.04 627.37 386.64C627.74 386.23 627.93 385.72 627.93 385.14C627.93 384.58 627.72 384.05 627.37 383.64C627.19 383.45 627 383.3 626.74 383.19Z" fill="#201D67" fill-opacity="1.000000" fill-rule="nonzero"/>
		<path id="Vector" d="M635.1 381.52C634.38 380.73 633.09 380.73 632.37 381.52C632.02 381.93 631.8 382.46 631.8 383.02C631.8 383.6 632 384.11 632.37 384.52C632.74 384.92 633.21 385.14 633.73 385.14C633.99 385.14 634.24 385.07 634.45 384.97C634.69 384.86 634.9 384.71 635.1 384.52C635.47 384.11 635.66 383.6 635.66 383.02C635.64 382.48 635.43 381.93 635.1 381.52Z" fill="#201D67" fill-opacity="1.000000" fill-rule="nonzero"/>
		<path id="Vector" d="M631.64 373.77C631.55 373.5 631.41 373.28 631.23 373.07C630.51 372.28 629.22 372.28 628.5 373.07C628.33 373.28 628.19 373.5 628.09 373.77C627.99 374.03 627.94 374.31 627.94 374.57C627.94 374.84 627.99 375.12 628.09 375.36C628.19 375.61 628.33 375.85 628.5 376.06C628.87 376.47 629.34 376.68 629.87 376.68C630.12 376.68 630.38 376.62 630.59 376.51C630.82 376.41 631.04 376.26 631.23 376.06C631.6 375.66 631.8 375.14 631.8 374.57C631.8 374.31 631.74 374.03 631.64 373.77Z" fill="#201D67" fill-opacity="1.000000" fill-rule="nonzero"/>
		<path id="Vector" d="M623.93 373.77C623.84 373.52 623.7 373.28 623.52 373.07C622.78 372.28 621.5 372.28 620.79 373.07C620.62 373.28 620.48 373.5 620.38 373.77C620.28 374.03 620.23 374.31 620.23 374.57C620.23 375.14 620.42 375.66 620.79 376.06C620.99 376.26 621.2 376.41 621.44 376.51C621.67 376.62 621.93 376.68 622.18 376.68C622.71 376.68 623.17 376.47 623.54 376.06C623.72 375.85 623.86 375.61 623.95 375.36C624.07 375.1 624.11 374.82 624.11 374.57C624.09 374.31 624.05 374.03 623.93 373.77Z" fill="#201D67" fill-opacity="1.000000" fill-rule="nonzero"/>
		<path id="Vector" d="M624.66 367.63C625.03 368.04 625.5 368.25 626.02 368.25C626.28 368.25 626.53 368.19 626.74 368.08C626.98 367.97 627.19 367.82 627.39 367.63C627.56 367.42 627.7 367.18 627.8 366.92C627.9 366.67 627.95 366.39 627.95 366.13C627.95 365.56 627.74 365.04 627.39 364.64C626.84 364.06 626 363.84 625.28 364.19C625.03 364.29 624.83 364.44 624.64 364.64C624.28 365.04 624.07 365.58 624.07 366.13C624.07 366.41 624.13 366.69 624.23 366.92C624.34 367.18 624.48 367.42 624.66 367.63Z" fill="#201D67" fill-opacity="1.000000" fill-rule="nonzero"/>
		<path id="Vector" d="M505.84 287.31C497.7 287.31 491.09 280.06 491.09 271.13C491.09 263.19 496.32 256.58 503.22 255.21C503.46 260.02 506.68 263.98 510.89 264.86C510.82 265.44 510.76 266.04 510.76 266.64C510.76 272.24 514.37 276.93 519.17 278.04C516.81 283.52 511.73 287.31 505.84 287.31Z" stroke="#1C186C" stroke-opacity="1.000000" stroke-width="4.639566" stroke-linejoin="round"/>
		<path id="Vector" d="M499.73 262.31C498.54 262.31 497.56 263.38 497.56 264.69C497.56 266 498.54 267.06 499.73 267.06C500.92 267.06 501.9 266 501.9 264.69C501.9 263.36 500.92 262.31 499.73 262.31Z" fill="#201D67" fill-opacity="1.000000" fill-rule="nonzero"/>
		<path id="Vector" d="M494.95 249.92C493.76 249.92 492.78 250.99 492.78 252.3C492.78 253.6 493.76 254.67 494.95 254.67C496.14 254.67 497.12 253.6 497.12 252.3C497.1 250.97 496.14 249.92 494.95 249.92Z" fill="#201D67" fill-opacity="1.000000" fill-rule="nonzero"/>
		<path id="Vector" d="M506.03 269.61C504.84 269.61 503.87 270.68 503.87 271.99C503.87 273.29 504.84 274.36 506.03 274.36C507.22 274.36 508.2 273.29 508.2 271.99C508.2 270.66 507.22 269.61 506.03 269.61Z" fill="#201D67" fill-opacity="1.000000" fill-rule="nonzero"/>
		<path id="Vector" d="M506.97 279.73C507.48 279.39 507.91 279.13 507.91 279.13C507.91 279.13 507.5 279.39 506.97 279.73C506.45 280.07 506.04 280.33 506.04 280.33C506.04 280.33 506.47 280.05 506.97 279.73Z" stroke="#1C186C" stroke-opacity="1.000000" stroke-width="4.639566" stroke-linejoin="round"/>
		<path id="Vector" d="M498.97 273.46C498.43 273.21 497.98 272.99 497.98 272.99C497.98 272.99 498.43 273.21 498.97 273.46C499.52 273.72 499.97 273.93 499.97 273.93C499.97 273.93 499.52 273.72 498.97 273.46Z" stroke="#1C186C" stroke-opacity="1.000000" stroke-width="4.639566" stroke-linejoin="round"/>
		<path id="Vector" d="M489.08 258.72C488.65 259.17 488.3 259.53 488.3 259.53C488.3 259.53 488.65 259.17 489.08 258.72C489.51 258.27 489.86 257.91 489.86 257.91C489.86 257.91 489.51 258.27 489.08 258.72Z" stroke="#1C186C" stroke-opacity="1.000000" stroke-width="4.639566" stroke-linejoin="round"/>
		<path id="Vector" d="M486.32 271.45C484.3 268.93 483.07 265.63 483.07 262.01C483.07 254.12 488.9 247.72 496.1 247.72C501.92 247.72 506.86 251.89 508.53 257.67" stroke="#1C186C" stroke-opacity="1.000000" stroke-width="4.639566" stroke-linejoin="round" stroke-linecap="round"/>
		<path id="Vector" d="M117.86 405.33C116.61 405.03 115.3 405.07 114.07 405.46C112.83 405.85 111.71 406.57 110.79 407.56C110.41 408 110.19 408.58 110.19 409.19C110.19 409.81 110.41 410.39 110.79 410.83L113.02 413.36" stroke="#1C186C" stroke-opacity="1.000000" stroke-width="4.639566" stroke-linejoin="round" stroke-linecap="round"/>
		<path id="Vector" d="M132.42 421.57C132.69 422.97 132.63 424.41 132.27 425.77C131.9 427.14 131.22 428.38 130.31 429.39C130.12 429.6 129.88 429.77 129.63 429.89C129.38 430 129.1 430.06 128.83 430.06C128.55 430.06 128.28 430 128.02 429.89C127.77 429.77 127.54 429.6 127.34 429.39L125.08 426.86" stroke="#1C186C" stroke-opacity="1.000000" stroke-width="4.639566" stroke-linejoin="round" stroke-linecap="round"/>
		<path id="Vector" d="M114.56 427.37C115.37 428.77 115.79 430.39 115.79 432.04C115.79 433.15 115.59 434.26 115.2 435.29C114.8 436.31 114.23 437.25 113.51 438.03C113.37 438.17 113.19 438.24 113.01 438.24C112.83 438.24 112.65 438.17 112.51 438.03C111.87 437.32 111.36 436.49 111.01 435.57C110.69 434.9 110.46 434.18 110.35 433.43C110.3 432.98 110.3 432.52 110.35 432.06C110.7 429.98 111.66 428.08 113.1 426.67C111.77 428.2 110.02 429.22 108.12 429.58C107.71 429.62 107.29 429.62 106.87 429.58C106.19 429.43 105.53 429.17 104.92 428.81C104.08 428.37 103.32 427.76 102.69 427.01C102.57 426.86 102.5 426.67 102.5 426.46C102.5 426.26 102.57 426.07 102.69 425.92C104.16 424.35 106.12 423.48 108.16 423.48C109.66 423.49 111.12 423.97 112.38 424.87" stroke="#1C186C" stroke-opacity="1.000000" stroke-width="4.639566" stroke-linejoin="round" stroke-linecap="round"/>
		<path id="Vector" d="M136.17 399.83C135.36 399.27 134.47 398.89 133.53 398.71C132.59 398.54 131.63 398.57 130.7 398.8C128.51 399.17 126.39 399.96 124.46 401.14C120.81 403.07 117.75 406.1 115.63 409.89C113.76 413.69 112.7 417.92 112.53 422.24C112.53 422.54 112.2 424.79 112.41 424.93L114.58 427.37C114.72 427.61 116.75 427.37 117.02 427.27C120.98 427.15 124.86 426.03 128.36 423.99C131.83 421.75 134.62 418.44 136.4 414.47C138.12 410.55 140.07 404.33 136.95 400.6C136.72 400.31 136.45 400.05 136.17 399.83Z" stroke="#1C186C" stroke-opacity="1.000000" stroke-width="4.639566" stroke-linejoin="round"/>
		<path id="Vector" d="M123.36 403.08C124.15 406 125.58 408.67 127.52 410.85C129.47 413.03 131.87 414.65 134.53 415.56" stroke="#1C186C" stroke-opacity="1.000000" stroke-width="4.639566" stroke-linejoin="round" stroke-linecap="round"/>
		<path id="Vector" d="M131.79 403.15C131.61 402.94 131.39 402.78 131.15 402.66C130.91 402.55 130.65 402.49 130.39 402.49C130.13 402.49 129.87 402.55 129.63 402.66C129.38 402.78 129.17 402.94 128.98 403.15C128.72 403.45 128.54 403.83 128.47 404.25C128.4 404.66 128.44 405.08 128.59 405.47C128.74 405.86 128.99 406.19 129.31 406.42C129.63 406.65 130 406.77 130.39 406.77C130.77 406.77 131.14 406.65 131.47 406.42C131.78 406.19 132.03 405.86 132.18 405.47C132.33 405.08 132.38 404.66 132.31 404.25C132.24 403.83 132.06 403.45 131.79 403.15Z" fill="#201D67" fill-opacity="1.000000" fill-rule="nonzero"/>
		<path id="Vector" d="M777.47 181.63C776.21 181.33 774.91 181.37 773.67 181.76C772.44 182.15 771.31 182.87 770.4 183.86C770.01 184.3 769.8 184.88 769.8 185.49C769.8 186.11 770.01 186.69 770.4 187.13L772.63 189.66" stroke="#1C186C" stroke-opacity="1.000000" stroke-width="4.639566" stroke-linejoin="round" stroke-linecap="round"/>
		<path id="Vector" d="M792.02 197.87C792.29 199.27 792.24 200.71 791.87 202.07C791.5 203.44 790.83 204.68 789.92 205.69C789.72 205.9 789.49 206.07 789.24 206.19C788.98 206.3 788.71 206.36 788.43 206.36C788.16 206.36 787.89 206.3 787.63 206.19C787.38 206.07 787.14 205.9 786.95 205.69L784.69 203.16" stroke="#1C186C" stroke-opacity="1.000000" stroke-width="4.639566" stroke-linejoin="round" stroke-linecap="round"/>
		<path id="Vector" d="M774.17 203.68C774.97 205.07 775.4 206.69 775.4 208.34C775.4 209.46 775.19 210.56 774.8 211.59C774.41 212.62 773.84 213.55 773.11 214.33C772.98 214.47 772.8 214.54 772.62 214.54C772.43 214.54 772.25 214.47 772.12 214.33C771.48 213.62 770.97 212.79 770.62 211.87C770.29 211.2 770.07 210.48 769.95 209.73C769.91 209.28 769.91 208.82 769.95 208.36C770.3 206.28 771.27 204.39 772.7 202.97C771.37 204.5 769.63 205.52 767.73 205.88C767.31 205.92 766.89 205.92 766.48 205.88C765.8 205.73 765.14 205.47 764.53 205.11C763.69 204.67 762.93 204.06 762.3 203.31C762.18 203.16 762.11 202.97 762.11 202.77C762.11 202.56 762.18 202.37 762.3 202.22C763.76 200.65 765.72 199.78 767.77 199.78C769.26 199.79 770.73 200.27 771.98 201.17" stroke="#1C186C" stroke-opacity="1.000000" stroke-width="4.639566" stroke-linejoin="round" stroke-linecap="round"/>
		<path id="Vector" d="M795.77 176.13C794.97 175.57 794.07 175.19 793.13 175.01C792.2 174.84 791.23 174.87 790.31 175.1C788.12 175.47 786 176.26 784.06 177.44C780.42 179.37 777.36 182.41 775.24 186.19C773.37 189.99 772.31 194.22 772.14 198.54C772.14 198.84 771.81 201.09 772.02 201.24L774.19 203.67C774.32 203.91 776.35 203.67 776.63 203.57C780.59 203.45 784.47 202.33 787.97 200.29C791.43 198.05 794.23 194.74 796.01 190.77C797.72 186.85 799.68 180.63 796.55 176.9C796.32 176.61 796.06 176.35 795.77 176.13Z" stroke="#1C186C" stroke-opacity="1.000000" stroke-width="4.639566" stroke-linejoin="round"/>
		<path id="Vector" d="M782.97 179.39C783.76 182.31 785.19 184.97 787.13 187.15C789.07 189.33 791.48 190.95 794.13 191.86" stroke="#1C186C" stroke-opacity="1.000000" stroke-width="4.639566" stroke-linejoin="round" stroke-linecap="round"/>
		<path id="Vector" d="M791.4 179.45C791.22 179.24 791 179.08 790.76 178.96C790.52 178.85 790.26 178.79 790 178.79C789.73 178.79 789.47 178.85 789.23 178.96C788.99 179.08 788.77 179.24 788.59 179.45C788.32 179.75 788.15 180.13 788.08 180.54C788.01 180.96 788.05 181.38 788.2 181.77C788.35 182.16 788.6 182.49 788.92 182.72C789.24 182.95 789.61 183.07 790 183.07C790.38 183.07 790.75 182.95 791.07 182.72C791.39 182.49 791.64 182.16 791.79 181.77C791.94 181.38 791.98 180.96 791.92 180.54C791.85 180.13 791.67 179.75 791.4 179.45Z" fill="#201D67" fill-opacity="1.000000" fill-rule="nonzero"/>
		<path id="Vector" d="M716.12 425.32C714.87 425.02 713.56 425.06 712.33 425.45C711.1 425.84 709.97 426.56 709.06 427.55C708.67 427.99 708.45 428.57 708.45 429.18C708.45 429.8 708.67 430.38 709.06 430.82L711.28 433.35" stroke="#1C186C" stroke-opacity="1.000000" stroke-width="4.639566" stroke-linejoin="round" stroke-linecap="round"/>
		<path id="Vector" d="M730.68 441.56C730.95 442.96 730.9 444.4 730.53 445.76C730.16 447.13 729.49 448.37 728.57 449.38C728.38 449.59 728.15 449.76 727.89 449.88C727.64 449.99 727.36 450.05 727.09 450.05C726.81 450.05 726.54 449.99 726.29 449.88C726.03 449.76 725.8 449.59 725.61 449.38L723.34 446.85" stroke="#1C186C" stroke-opacity="1.000000" stroke-width="4.639566" stroke-linejoin="round" stroke-linecap="round"/>
		<path id="Vector" d="M712.82 447.36C713.63 448.76 714.06 450.38 714.05 452.03C714.05 453.14 713.85 454.25 713.46 455.28C713.07 456.31 712.49 457.24 711.77 458.02C711.63 458.16 711.46 458.23 711.27 458.23C711.09 458.23 710.91 458.16 710.77 458.02C710.14 457.31 709.63 456.48 709.27 455.56C708.95 454.89 708.72 454.17 708.61 453.42C708.56 452.97 708.56 452.51 708.61 452.05C708.96 449.97 709.93 448.08 711.36 446.66C710.03 448.19 708.29 449.21 706.38 449.57C705.97 449.61 705.55 449.61 705.13 449.57C704.45 449.42 703.79 449.16 703.18 448.8C702.34 448.36 701.59 447.75 700.96 447C700.83 446.85 700.77 446.66 700.77 446.45C700.77 446.25 700.83 446.06 700.96 445.91C702.42 444.34 704.38 443.47 706.42 443.47C707.92 443.48 709.38 443.96 710.64 444.86" stroke="#1C186C" stroke-opacity="1.000000" stroke-width="4.639566" stroke-linejoin="round" stroke-linecap="round"/>
		<path id="Vector" d="M734.43 419.82C733.63 419.26 732.73 418.88 731.79 418.7C730.85 418.53 729.89 418.56 728.96 418.79C726.77 419.16 724.66 419.95 722.72 421.13C719.07 423.06 716.01 426.09 713.9 429.88C712.02 433.68 710.96 437.91 710.79 442.23C710.79 442.53 710.46 444.77 710.68 444.92L712.84 447.36C712.98 447.6 715.01 447.36 715.28 447.26C719.24 447.14 723.12 446.02 726.62 443.98C730.09 441.74 732.89 438.43 734.66 434.46C736.38 430.54 738.33 424.31 735.21 420.59C734.98 420.3 734.72 420.04 734.43 419.82Z" stroke="#1C186C" stroke-opacity="1.000000" stroke-width="4.639566" stroke-linejoin="round"/>
		<path id="Vector" d="M721.63 423.07C722.42 425.99 723.84 428.66 725.78 430.84C727.73 433.02 730.14 434.64 732.79 435.55" stroke="#1C186C" stroke-opacity="1.000000" stroke-width="4.639566" stroke-linejoin="round" stroke-linecap="round"/>
		<path id="Vector" d="M730.06 423.14C729.87 422.93 729.66 422.77 729.41 422.65C729.17 422.54 728.91 422.48 728.65 422.48C728.39 422.48 728.13 422.54 727.89 422.65C727.65 422.77 727.43 422.93 727.25 423.14C726.98 423.44 726.8 423.82 726.73 424.23C726.66 424.65 726.71 425.07 726.85 425.46C727.01 425.85 727.26 426.18 727.57 426.41C727.89 426.64 728.27 426.76 728.65 426.76C729.03 426.76 729.41 426.64 729.73 426.41C730.05 426.18 730.3 425.85 730.45 425.46C730.6 425.07 730.64 424.65 730.57 424.23C730.5 423.82 730.32 423.44 730.06 423.14Z" fill="#201D67" fill-opacity="1.000000" fill-rule="nonzero"/>
		<path id="Vector" d="M315.5 409.03L323.52 433.24L331.54 409.03" stroke="#1C186C" stroke-opacity="1.000000" stroke-width="4.639566" stroke-linejoin="round" stroke-linecap="round"/>
		<path id="Vector" d="M335.56 407.94C335.23 407.94 334.94 407.96 334.67 408.01C332.52 408.39 332.23 410.15 329.53 410.15C326.51 410.15 326.51 407.94 323.52 407.94C320.5 407.94 320.5 410.15 317.51 410.15C314.82 410.15 314.54 408.41 312.38 408.01C312.12 407.96 311.81 407.94 311.48 407.94" stroke="#1C186C" stroke-opacity="1.000000" stroke-width="4.639566" stroke-linejoin="round" stroke-linecap="round"/>
		<path id="Vector" d="M333.07 408.01C331.21 408.39 330.98 410.15 328.67 410.15C326.08 410.15 326.08 407.94 323.52 407.94C320.93 407.94 320.93 410.15 318.37 410.15C316.07 410.15 315.81 408.41 313.98 408.01C313.67 406.96 313.49 405.8 313.49 404.65C313.49 398.57 317.98 393.65 323.52 393.65C329.06 393.65 333.55 398.57 333.55 404.65C333.55 405.8 333.4 406.96 333.07 408.01Z" stroke="#1C186C" stroke-opacity="1.000000" stroke-width="4.639566" stroke-linejoin="round"/>
		<path id="Vector" d="M333.55 411.24L313.49 411.24" stroke="#1C186C" stroke-opacity="1.000000" stroke-width="4.639566" stroke-linejoin="round" stroke-linecap="round"/>
		<path id="Vector" d="M839.88 460L847.9 484.21L855.92 460" stroke="#1C186C" stroke-opacity="1.000000" stroke-width="4.639566" stroke-linejoin="round" stroke-linecap="round"/>
		<path id="Vector" d="M859.94 458.91C859.61 458.91 859.32 458.93 859.05 458.97C856.9 459.36 856.61 461.11 853.91 461.11C850.89 461.11 850.89 458.91 847.9 458.91C844.88 458.91 844.88 461.11 841.89 461.11C839.2 461.11 838.93 459.38 836.76 458.97C836.5 458.93 836.19 458.91 835.86 458.91" stroke="#1C186C" stroke-opacity="1.000000" stroke-width="4.639566" stroke-linejoin="round" stroke-linecap="round"/>
		<path id="Vector" d="M857.45 458.97C855.59 459.36 855.36 461.12 853.06 461.12C850.46 461.12 850.46 458.91 847.9 458.91C845.31 458.91 845.31 461.12 842.75 461.12C840.45 461.12 840.19 459.38 838.36 458.97C838.05 457.93 837.87 456.77 837.87 455.62C837.87 449.54 842.36 444.61 847.9 444.61C853.45 444.61 857.93 449.54 857.93 455.62C857.93 456.77 857.78 457.93 857.45 458.97Z" stroke="#1C186C" stroke-opacity="1.000000" stroke-width="4.639566" stroke-linejoin="round"/>
		<path id="Vector" d="M857.93 462.21L837.87 462.21" stroke="#1C186C" stroke-opacity="1.000000" stroke-width="4.639566" stroke-linejoin="round" stroke-linecap="round"/>
		<path id="Vector" d="M522 421.69L522 423.96L507.56 423.96L507.56 421.69L522 421.69Z" stroke="#1C186C" stroke-opacity="1.000000" stroke-width="4.639566" stroke-linejoin="round"/>
		<path id="Vector" d="M532.77 406.37C530.72 415.16 523.44 421.67 514.78 421.67C506.11 421.67 498.83 415.16 496.79 406.37C496.45 404.95 497.47 403.58 498.81 403.58L530.74 403.58C532.07 403.58 533.09 404.95 532.77 406.37Z" stroke="#1C186C" stroke-opacity="1.000000" stroke-width="4.639566" stroke-linejoin="round"/>
		<path id="Vector" d="M506.99 403.58C504.72 403.58 502.88 401.56 502.88 399.07C502.88 396.57 504.72 394.55 506.99 394.55C509.27 394.55 511.11 396.57 511.11 399.07C511.11 401.56 509.27 403.58 506.99 403.58Z" stroke="#1C186C" stroke-opacity="1.000000" stroke-width="4.639566" stroke-linejoin="round"/>
		<path id="Vector" d="M522.57 403.24C520.29 403.24 518.45 401.22 518.45 398.73C518.45 396.23 520.29 394.21 522.57 394.21C524.84 394.21 526.69 396.23 526.69 398.73C526.69 401.22 524.84 403.24 522.57 403.24Z" stroke="#1C186C" stroke-opacity="1.000000" stroke-width="4.639566" stroke-linejoin="round"/>
		<path id="Vector" d="M515.43 403.26C513.71 403.26 512.32 401.74 512.32 399.86C512.32 397.98 513.71 396.46 515.43 396.46C517.14 396.46 518.53 397.98 518.53 399.86C518.53 401.74 517.14 403.26 515.43 403.26Z" stroke="#1C186C" stroke-opacity="1.000000" stroke-width="4.639566" stroke-linejoin="round"/>
		<path id="Vector" d="M504.75 394.85L498.27 387.75" stroke="#1C186C" stroke-opacity="1.000000" stroke-width="4.639566" stroke-linejoin="round" stroke-linecap="round"/>
		<path id="Vector" d="M499.32 410.33L530.24 410.33" stroke="#1C186C" stroke-opacity="1.000000" stroke-width="4.639566" stroke-linejoin="round" stroke-linecap="round"/>
		<path id="Vector" d="M403.54 344.56C403.54 348.11 406.15 350.98 409.39 350.98L432.81 350.98C436.05 350.98 438.67 348.11 438.67 344.56L403.54 344.56Z" stroke="#1C186C" stroke-opacity="1.000000" stroke-width="4.639566" stroke-linejoin="round"/>
		<path id="Vector" d="M405.49 342.42L405.49 344.56L436.71 344.56L436.71 342.42C436.71 332.96 429.73 325.3 421.1 325.3C412.47 325.3 405.49 332.96 405.49 342.42Z" stroke="#1C186C" stroke-opacity="1.000000" stroke-width="4.639566" stroke-linejoin="round"/>
		<path id="Vector" d="M424.52 323.16C424.52 325.23 422.99 326.9 421.1 326.9C419.22 326.9 417.69 325.23 417.69 323.16C417.69 321.09 419.22 319.41 421.1 319.41C422.99 319.41 424.52 321.09 424.52 323.16Z" fill="#201D67" fill-opacity="1.000000" fill-rule="evenodd"/>
		<path id="Vector" d="M294.23 267.04C299.64 267.41 305.04 270 309.32 274.75C313.55 279.46 315.87 285.45 316.23 291.44" stroke="#1C186C" stroke-opacity="1.000000" stroke-width="4.639566" stroke-linejoin="round" stroke-linecap="round"/>
		<path id="Vector" d="M316.05 293.47L291.69 300C288.41 300.88 285.54 297.67 286.36 294.03L288.08 286.33L288.2 285.83L289.7 279.14L289.84 278.49L292.37 267.26L293 264.52C293.58 261.89 295.91 260.2 298.29 260.62C304.14 261.67 309.65 264.63 314.04 269.5C318.41 274.34 321.04 280.44 322 286.93C322.39 289.58 320.83 292.19 318.45 292.83L316.05 293.47Z" stroke="#1C186C" stroke-opacity="1.000000" stroke-width="4.639566" stroke-linejoin="round"/>
		<path id="Vector" d="M303.73 285.99C302.01 285.99 300.61 284.43 300.61 282.52C300.61 280.6 302.01 279.05 303.73 279.05C305.46 279.05 306.85 280.6 306.85 282.52C306.85 284.43 305.46 285.99 303.73 285.99Z" stroke="#1C186C" stroke-opacity="1.000000" stroke-width="4.639566" stroke-linejoin="round"/>
		<path id="Vector" d="M288.2 285.79L290.15 277.06C290.89 277.25 291.59 277.64 292.18 278.28C293.78 280.06 293.78 282.92 292.18 284.68C291.11 285.88 289.56 286.26 288.2 285.79Z" stroke="#1C186C" stroke-opacity="1.000000" stroke-width="4.639566" stroke-linejoin="round"/>
		<path id="Vector" d="M294.64 296.88C294.35 295.64 294.64 294.27 295.5 293.3C296.81 291.85 298.91 291.85 300.22 293.3C300.65 293.78 300.94 294.35 301.08 294.97" stroke="#1C186C" stroke-opacity="1.000000" stroke-width="4.639566" stroke-linejoin="round" stroke-linecap="round"/>
		<path id="Vector" d="M857.72 253.67C863.13 254.04 868.54 256.63 872.81 261.38C877.05 266.09 879.37 272.08 879.72 278.07" stroke="#1C186C" stroke-opacity="1.000000" stroke-width="4.639566" stroke-linejoin="round" stroke-linecap="round"/>
		<path id="Vector" d="M879.54 280.1L855.19 286.63C851.91 287.51 849.04 284.3 849.86 280.66L851.58 272.96L851.69 272.46L853.2 265.76L853.33 265.12L855.87 253.89L856.49 251.15C857.08 248.51 859.4 246.82 861.78 247.25C867.64 248.3 873.14 251.25 877.53 256.13C881.9 260.97 884.54 267.07 885.5 273.55C885.89 276.21 884.32 278.82 881.94 279.46L879.54 280.1Z" stroke="#1C186C" stroke-opacity="1.000000" stroke-width="4.639566" stroke-linejoin="round"/>
		<path id="Vector" d="M867.23 272.61C865.51 272.61 864.11 271.06 864.11 269.15C864.11 267.23 865.51 265.68 867.23 265.68C868.95 265.68 870.35 267.23 870.35 269.15C870.35 271.06 868.95 272.61 867.23 272.61Z" stroke="#1C186C" stroke-opacity="1.000000" stroke-width="4.639566" stroke-linejoin="round"/>
		<path id="Vector" d="M851.69 272.42L853.64 263.69C854.39 263.88 855.09 264.27 855.67 264.91C857.27 266.69 857.27 269.55 855.67 271.31C854.6 272.51 853.06 272.89 851.69 272.42Z" stroke="#1C186C" stroke-opacity="1.000000" stroke-width="4.639566" stroke-linejoin="round"/>
		<path id="Vector" d="M858.13 283.51C857.84 282.26 858.13 280.9 858.99 279.93C860.3 278.48 862.41 278.48 863.71 279.93C864.14 280.4 864.44 280.98 864.57 281.6" stroke="#1C186C" stroke-opacity="1.000000" stroke-width="4.639566" stroke-linejoin="round" stroke-linecap="round"/>
		<path id="Vector" d="M200.4 368.42C198.27 370.76 198.27 374.52 200.4 376.85C202.52 379.19 205.96 379.19 208.09 376.85L228.07 354.94C230.2 352.61 230.2 348.84 228.07 346.51C225.94 344.17 222.51 344.17 220.38 346.51L200.4 368.42Z" stroke="#1C186C" stroke-opacity="1.000000" stroke-width="4.639566" stroke-linejoin="round"/>
		<path id="Vector" d="M204.59 371.33C206.89 368.81 207.71 369.71 210.04 367.18C212.34 364.66 211.52 363.76 213.82 361.21C216.13 358.68 216.96 359.58 219.27 357.06C221.57 354.53 220.75 353.61 223.05 351.09" stroke="#1C186C" stroke-opacity="1.000000" stroke-width="4.639566" stroke-linejoin="round" stroke-linecap="round"/>
		<path id="Vector" d="M198.09 360.85C195.54 363.65 195.54 368.16 198.09 370.97L222.68 344C220.15 341.18 216.01 341.18 213.47 343.98L198.09 360.85Z" stroke="#1C186C" stroke-opacity="1.000000" stroke-width="4.639566" stroke-linejoin="round"/>
		<path id="Vector" d="M230.37 362.52C232.93 359.71 232.93 355.2 230.37 352.39L205.78 379.36C208.32 382.18 212.46 382.18 214.99 379.38L230.37 362.52Z" stroke="#1C186C" stroke-opacity="1.000000" stroke-width="4.639566" stroke-linejoin="round"/>
		<path id="Vector" d="M855.65 113.75C853.53 116.08 853.53 119.84 855.65 122.18C857.78 124.51 861.22 124.51 863.34 122.18L883.33 100.26C885.46 97.93 885.46 94.16 883.33 91.83C881.2 89.5 877.77 89.5 875.64 91.83L855.65 113.75Z" stroke="#1C186C" stroke-opacity="1.000000" stroke-width="4.639566" stroke-linejoin="round"/>
		<path id="Vector" d="M859.85 116.65C862.15 114.13 862.97 115.03 865.3 112.5C867.6 109.98 866.78 109.08 869.08 106.53C871.39 104.01 872.22 104.91 874.53 102.38C876.83 99.85 876.01 98.93 878.31 96.41" stroke="#1C186C" stroke-opacity="1.000000" stroke-width="4.639566" stroke-linejoin="round" stroke-linecap="round"/>
		<path id="Vector" d="M853.35 106.17C850.8 108.97 850.8 113.49 853.35 116.29L877.94 89.33C875.41 86.5 871.27 86.5 868.73 89.3L853.35 106.17Z" stroke="#1C186C" stroke-opacity="1.000000" stroke-width="4.639566" stroke-linejoin="round"/>
		<path id="Vector" d="M885.63 107.84C888.19 105.03 888.19 100.52 885.63 97.71L861.04 124.68C863.58 127.51 867.72 127.51 870.25 124.7L885.63 107.84Z" stroke="#1C186C" stroke-opacity="1.000000" stroke-width="4.639566" stroke-linejoin="round"/>
		<path id="Vector" d="M783.45 366.97C781.32 369.3 781.32 373.07 783.45 375.4C785.57 377.73 789.01 377.73 791.14 375.4L811.12 353.48C813.25 351.15 813.25 347.39 811.12 345.05C808.99 342.72 805.56 342.72 803.43 345.05L783.45 366.97Z" stroke="#1C186C" stroke-opacity="1.000000" stroke-width="4.639566" stroke-linejoin="round"/>
		<path id="Vector" d="M787.64 369.88C789.95 367.35 790.77 368.25 793.09 365.73C795.39 363.2 794.57 362.3 796.87 359.76C799.18 357.23 800.02 358.13 802.32 355.6C804.62 353.08 803.8 352.16 806.1 349.63" stroke="#1C186C" stroke-opacity="1.000000" stroke-width="4.639566" stroke-linejoin="round" stroke-linecap="round"/>
		<path id="Vector" d="M781.14 359.39C778.59 362.2 778.59 366.71 781.14 369.52L805.73 342.55C803.2 339.72 799.06 339.72 796.52 342.53L781.14 359.39Z" stroke="#1C186C" stroke-opacity="1.000000" stroke-width="4.639566" stroke-linejoin="round"/>
		<path id="Vector" d="M813.42 361.06C815.98 358.26 815.98 353.74 813.42 350.94L788.83 377.9C791.37 380.73 795.51 380.73 798.05 377.92L813.42 361.06Z" stroke="#1C186C" stroke-opacity="1.000000" stroke-width="4.639566" stroke-linejoin="round"/>
		<path id="Vector" d="M97.13 297.95C93.66 297.95 90.85 294.87 90.85 291.06L90.85 286.95L122.93 286.95L122.93 291.06C122.93 294.87 120.12 297.95 116.65 297.95L97.13 297.95Z" stroke="#1C186C" stroke-opacity="1.000000" stroke-width="4.639566" stroke-linejoin="round"/>
		<path id="Vector" d="M91.84 280.35C90.19 280.35 88.84 281.83 88.84 283.65C88.84 285.47 90.19 286.95 91.84 286.95L121.94 286.95C123.6 286.95 124.94 285.47 124.94 283.65C124.94 281.83 123.6 280.35 121.94 280.35L91.84 280.35Z" stroke="#1C186C" stroke-opacity="1.000000" stroke-width="4.639566" stroke-linejoin="round"/>
		<path id="Vector" d="M105.86 262.76C97.56 262.76 90.85 270.13 90.85 279.22L90.85 280.35L122.93 280.35L122.93 279.22C122.93 270.13 116.22 262.76 107.93 262.76L105.86 262.76Z" stroke="#1C186C" stroke-opacity="1.000000" stroke-width="4.639566" stroke-linejoin="round"/>
		<path id="Vector" d="M90.63 287.48C91.39 288.38 91.94 289.6 93.37 289.6C94.79 289.6 95.34 288.38 96.1 287.48" stroke="#1C186C" stroke-opacity="1.000000" stroke-width="4.639566" stroke-linejoin="round" stroke-linecap="round"/>
		<path id="Vector" d="M108.96 287.48C109.72 288.38 110.27 289.6 111.69 289.6C113.14 289.6 113.68 288.38 114.44 287.48" stroke="#1C186C" stroke-opacity="1.000000" stroke-width="4.639566" stroke-linejoin="round" stroke-linecap="round"/>
		<path id="Vector" d="M120.89 289.58C119.46 289.58 118.91 288.36 118.15 287.46" stroke="#1C186C" stroke-opacity="1.000000" stroke-width="4.639566" stroke-linejoin="round" stroke-linecap="round"/>
		<path id="Vector" d="M99.81 287.48C100.57 288.38 101.11 289.6 102.54 289.6C103.96 289.6 104.51 288.38 105.27 287.48" stroke="#1C186C" stroke-opacity="1.000000" stroke-width="4.639566" stroke-linejoin="round" stroke-linecap="round"/>
		<path id="Vector" d="M767.6 43.27C764.13 43.27 761.32 40.19 761.32 36.38L761.32 32.27L793.41 32.27L793.41 36.38C793.41 40.19 790.6 43.27 787.12 43.27L767.6 43.27Z" stroke="#1C186C" stroke-opacity="1.000000" stroke-width="4.639566" stroke-linejoin="round"/>
		<path id="Vector" d="M762.32 25.68C760.66 25.68 759.31 27.15 759.31 28.97C759.31 30.79 760.66 32.27 762.32 32.27L792.41 32.27C794.07 32.27 795.41 30.79 795.41 28.97C795.41 27.15 794.07 25.68 792.41 25.68L762.32 25.68Z" stroke="#1C186C" stroke-opacity="1.000000" stroke-width="4.639566" stroke-linejoin="round"/>
		<path id="Vector" d="M776.33 8.09C768.03 8.09 761.32 15.45 761.32 24.54L761.32 25.68L793.41 25.68L793.41 24.54C793.41 15.45 786.69 8.09 778.4 8.09L776.33 8.09Z" stroke="#1C186C" stroke-opacity="1.000000" stroke-width="4.639566" stroke-linejoin="round"/>
		<path id="Vector" d="M761.11 32.8C761.87 33.7 762.41 34.92 763.84 34.92C765.26 34.92 765.81 33.7 766.57 32.8" stroke="#1C186C" stroke-opacity="1.000000" stroke-width="4.639566" stroke-linejoin="round" stroke-linecap="round"/>
		<path id="Vector" d="M779.43 32.8C780.19 33.7 780.74 34.92 782.16 34.92C783.61 34.92 784.15 33.7 784.92 32.8" stroke="#1C186C" stroke-opacity="1.000000" stroke-width="4.639566" stroke-linejoin="round" stroke-linecap="round"/>
		<path id="Vector" d="M791.36 34.9C789.93 34.9 789.39 33.68 788.62 32.78" stroke="#1C186C" stroke-opacity="1.000000" stroke-width="4.639566" stroke-linejoin="round" stroke-linecap="round"/>
		<path id="Vector" d="M770.28 32.8C771.04 33.7 771.59 34.92 773.01 34.92C774.44 34.92 774.98 33.7 775.74 32.8" stroke="#1C186C" stroke-opacity="1.000000" stroke-width="4.639566" stroke-linejoin="round" stroke-linecap="round"/>
		<path id="Vector" d="M695.4 310.79C691.92 310.79 689.11 307.71 689.11 303.9L689.11 299.79L721.2 299.79L721.2 303.9C721.2 307.71 718.39 310.79 714.91 310.79L695.4 310.79Z" stroke="#1C186C" stroke-opacity="1.000000" stroke-width="4.639566" stroke-linejoin="round"/>
		<path id="Vector" d="M690.11 293.2C688.45 293.2 687.1 294.67 687.1 296.49C687.1 298.31 688.45 299.79 690.11 299.79L720.2 299.79C721.86 299.79 723.21 298.31 723.21 296.49C723.21 294.67 721.86 293.2 720.2 293.2L690.11 293.2Z" stroke="#1C186C" stroke-opacity="1.000000" stroke-width="4.639566" stroke-linejoin="round"/>
		<path id="Vector" d="M704.12 275.6C695.83 275.6 689.11 282.97 689.11 292.06L689.11 293.19L721.2 293.19L721.2 292.06C721.2 282.97 714.48 275.6 706.19 275.6L704.12 275.6Z" stroke="#1C186C" stroke-opacity="1.000000" stroke-width="4.639566" stroke-linejoin="round"/>
		<path id="Vector" d="M688.9 300.32C689.66 301.22 690.21 302.44 691.63 302.44C693.06 302.44 693.6 301.22 694.36 300.32" stroke="#1C186C" stroke-opacity="1.000000" stroke-width="4.639566" stroke-linejoin="round" stroke-linecap="round"/>
		<path id="Vector" d="M707.22 300.32C707.98 301.22 708.53 302.44 709.96 302.44C711.4 302.44 711.95 301.22 712.71 300.32" stroke="#1C186C" stroke-opacity="1.000000" stroke-width="4.639566" stroke-linejoin="round" stroke-linecap="round"/>
		<path id="Vector" d="M719.15 302.42C717.72 302.42 717.18 301.2 716.42 300.3" stroke="#1C186C" stroke-opacity="1.000000" stroke-width="4.639566" stroke-linejoin="round" stroke-linecap="round"/>
		<path id="Vector" d="M698.07 300.32C698.83 301.22 699.38 302.44 700.8 302.44C702.23 302.44 702.77 301.22 703.54 300.32" stroke="#1C186C" stroke-opacity="1.000000" stroke-width="4.639566" stroke-linejoin="round" stroke-linecap="round"/>
	</g>
</svg>
