<svg width="21.952148" height="18.188965" viewBox="0 0 21.9521 18.189" fill="none" xmlns="http://www.w3.org/2000/svg" xmlns:xlink="http://www.w3.org/1999/xlink">
	<desc>
			Created with Pixso.
	</desc>
	<defs/>
	<path id="Icon" d="M0 5.99C0 2.6 2.97 0 6.45 0C8.25 0 9.84 0.84 10.97 1.93C12.11 0.84 13.69 0 15.49 0C18.98 0 21.95 2.6 21.95 5.99C21.95 8.31 20.96 10.35 19.59 12.08C18.22 13.8 16.43 15.26 14.71 16.45C14.06 16.9 13.4 17.32 12.79 17.63C12.22 17.92 11.57 18.18 10.97 18.18C10.38 18.18 9.72 17.92 9.15 17.63C8.55 17.32 7.88 16.9 7.23 16.45C5.51 15.26 3.72 13.8 2.36 12.08C0.98 10.35 0 8.31 0 5.99ZM6.45 1.88C3.85 1.88 1.88 3.79 1.88 5.99C1.88 7.75 2.62 9.39 3.83 10.91C5.04 12.42 6.66 13.76 8.3 14.9C8.92 15.33 9.51 15.7 10.01 15.95C10.54 16.23 10.85 16.3 10.97 16.3C11.09 16.3 11.4 16.23 11.94 15.95C12.44 15.7 13.02 15.33 13.64 14.9C15.28 13.76 16.91 12.42 18.11 10.91C19.32 9.39 20.07 7.75 20.07 5.99C20.07 3.79 18.09 1.88 15.49 1.88C13.99 1.88 12.59 2.77 11.72 3.91C11.54 4.14 11.26 4.27 10.97 4.27C10.68 4.27 10.4 4.14 10.23 3.91C9.35 2.77 7.95 1.88 6.45 1.88Z" fill="#323142" fill-opacity="1.000000" fill-rule="evenodd"/>
</svg>
