<svg width="58.689453" height="44.251465" viewBox="0 0 58.6895 44.2515" fill="none" xmlns="http://www.w3.org/2000/svg" xmlns:xlink="http://www.w3.org/1999/xlink">
	<desc>
			Created with Pixso.
	</desc>
	<defs/>
	<path id="Path 173" d="M34.293 38.3286Q32.1387 31.8672 32.1387 24.6875Q32.1387 15.3901 36.4072 8.89941Q37.0566 7.91064 37.8066 6.98682Q38.6514 5.94482 39.6367 5.05811Q45.2568 0 55.4287 0L55.4287 9.78174Q51.2363 9.78174 49.2959 11.645C48.002 12.8872 47.3555 15.2681 47.3555 18.7871L47.3555 20.3398L58.6895 20.3398L58.6895 44.251L36.7969 44.251Q35.3066 41.3696 34.293 38.3286ZM0 24.6875C0 31.7266 1.55273 38.2476 4.6582 44.2515L26.5508 44.2515L26.5508 20.3403L15.2158 20.3403L15.2158 18.7876C15.2158 15.2681 15.8633 12.8872 17.1572 11.645Q19.0977 9.78223 23.29 9.78223L23.29 0C15.3193 0 9.44531 2.3291 5.66699 6.9873Q4.91797 7.91064 4.26758 8.89941Q0 15.3906 0 24.6875Z" clip-rule="evenodd" fill="#DADADA" fill-opacity="1.000000" fill-rule="evenodd"/>
</svg>
