<svg width="14.558594" height="19.690430" viewBox="0 0 14.5586 19.6904" fill="none" xmlns="http://www.w3.org/2000/svg" xmlns:xlink="http://www.w3.org/1999/xlink">
	<desc>
			Created with Pixso.
	</desc>
	<defs/>
	<path id="Book Mark" d="M11.66 0.36C8.76 -0.13 5.79 -0.13 2.88 0.36C1.82 0.54 0.98 1.35 0.77 2.41C-0.21 7.24 -0.26 12.21 0.61 17.07L0.96 19.04C1.07 19.65 1.82 19.9 2.27 19.47L6.54 15.41C6.95 15.02 7.6 15.02 8.01 15.41L12.28 19.47C12.73 19.9 13.47 19.65 13.58 19.04L13.94 17.07C14.81 12.21 14.76 7.24 13.78 2.41C13.57 1.35 12.72 0.54 11.66 0.36Z" fill="#6C5FBC" fill-opacity="1.000000" fill-rule="nonzero"/>
</svg>
