<svg width="25.786133" height="25.786133" viewBox="0 0 25.7861 25.7861" fill="none" xmlns="http://www.w3.org/2000/svg" xmlns:xlink="http://www.w3.org/1999/xlink">
	<desc>
			Created with Pixso.
	</desc>
	<defs/>
	<g opacity="0.000100" style="mix-blend-mode:normal"/>
	<path id="Edit Color" d="M15.95 21.15C17.66 22.08 19.15 20.95 18.83 18.98L18.24 15.42L20.72 12.91C22.1 11.51 21.53 9.68 19.62 9.39L16.2 8.87L14.67 5.65C13.82 3.85 11.96 3.83 11.11 5.64L9.58 8.87L6.15 9.39C4.25 9.68 3.67 11.51 5.05 12.91L7.53 15.42L6.95 18.98C6.62 20.95 8.12 22.09 9.82 21.15L12.89 19.47L15.95 21.15Z" fill="#6C5FBC" fill-opacity="1.000000" fill-rule="nonzero"/>
	<mask id="mask1_16754" mask-type="alpha" maskUnits="userSpaceOnUse" x="4.296875" y="4.297852" width="17.191406" height="17.191406">
		<path id="Edit Color" d="M15.95 21.15C17.66 22.08 19.15 20.95 18.83 18.98L18.24 15.42L20.72 12.91C22.1 11.51 21.53 9.68 19.62 9.39L16.2 8.87L14.67 5.65C13.82 3.85 11.96 3.83 11.11 5.64L9.58 8.87L6.15 9.39C4.25 9.68 3.67 11.51 5.05 12.91L7.53 15.42L6.95 18.98C6.62 20.95 8.12 22.09 9.82 21.15L12.89 19.47L15.95 21.15Z" fill="#FF7A28" fill-opacity="1.000000" fill-rule="nonzero"/>
	</mask>
</svg>
