<svg width="15.958008" height="15.282227" viewBox="0 0 15.958 15.2822" fill="none" xmlns="http://www.w3.org/2000/svg" xmlns:xlink="http://www.w3.org/1999/xlink">
	<desc>
			Created with Pixso.
	</desc>
	<defs/>
	<path id="Icon" d="M6.95 0.74C7.27 -0.25 8.67 -0.25 8.99 0.74L10.14 4.27C10.29 4.71 10.7 5.01 11.16 5.01L14.88 5.01C15.92 5.01 16.35 6.34 15.51 6.95L12.5 9.14C12.13 9.41 11.97 9.89 12.11 10.33L13.26 13.87C13.58 14.86 12.45 15.68 11.61 15.07L8.6 12.88C8.23 12.61 7.72 12.61 7.34 12.88L4.34 15.07C3.5 15.68 2.37 14.86 2.69 13.87L3.83 10.33C3.98 9.89 3.82 9.41 3.44 9.14L0.44 6.95C-0.4 6.34 0.03 5.01 1.07 5.01L4.79 5.01C5.25 5.01 5.66 4.71 5.81 4.27L6.95 0.74Z" fill="#F59E0B" fill-opacity="1.000000" fill-rule="nonzero"/>
</svg>
