<svg width="169.252930" height="60.026367" viewBox="0 0 169.253 60.0264" fill="none" xmlns="http://www.w3.org/2000/svg" xmlns:xlink="http://www.w3.org/1999/xlink">
	<desc>
			Created with Pixso.
	</desc>
	<defs/>
	<path id="Vector 14" d="M167.92 5.08C167.92 5.08 158.59 33.75 134.88 37.49C116.62 40.37 95.72 30.78 95.6 15.58C95.57 10.95 99.33 1.91 107.37 1.35C114.89 0.83 118.29 7.41 119.86 11.74C126.38 29.8 105.63 44.81 86.54 46.92C70.12 48.73 51.71 40.84 50.76 24.35C50.45 19 53.33 14.89 59.27 13.38C65.06 11.91 68.98 15.76 71.51 21.17C80.41 40.19 52.15 60.1 33.5 58.61C18.86 57.45 2.04 39.06 2.04 39.06M6.29 51.17L2.04 39.06L13.94 41.84" stroke="#6C5FBC" stroke-opacity="1.000000" stroke-width="2.650000" stroke-linecap="round"/>
</svg>
