<svg width="527.968750" height="850.997070" viewBox="0 0 527.969 850.997" fill="none" xmlns="http://www.w3.org/2000/svg" xmlns:xlink="http://www.w3.org/1999/xlink">
	<desc>
			Created with Pixso.
	</desc>
	<defs/>
	<g opacity="0.100000">
		<path id="Vector" d="M171.62 13.31L167.92 8.22L173.01 4.52C173.65 4.06 173.8 3.15 173.33 2.51C172.87 1.87 171.96 1.72 171.32 2.19L166.22 5.89L162.53 0.79C162.06 0.15 161.15 0.01 160.51 0.48C159.87 0.94 159.73 1.85 160.19 2.49L163.89 7.58L158.8 11.28C158.16 11.75 158.01 12.66 158.48 13.3C158.95 13.94 159.85 14.08 160.5 13.62L165.59 9.92L169.29 15.01C169.75 15.65 170.66 15.79 171.3 15.33C171.95 14.86 172.09 13.96 171.62 13.31Z" fill="#FFFFFF" fill-opacity="1.000000" fill-rule="nonzero"/>
	</g>
	<g opacity="0.100000">
		<path id="Vector" d="M512.62 67.31L508.92 62.22L514.01 58.52C514.65 58.05 514.79 57.15 514.33 56.5C513.86 55.86 512.95 55.72 512.31 56.18L507.22 59.88L503.52 54.79C503.06 54.15 502.15 54.01 501.51 54.47C500.87 54.94 500.72 55.85 501.19 56.49L504.89 61.58L499.8 65.28C499.15 65.74 499.01 66.65 499.48 67.29C499.94 67.93 500.85 68.08 501.49 67.61L506.58 63.91L510.28 69C510.75 69.65 511.66 69.79 512.3 69.32C512.95 68.86 513.09 67.96 512.62 67.31Z" fill="#FFFFFF" fill-opacity="1.000000" fill-rule="nonzero"/>
	</g>
	<g opacity="0.100000">
		<path id="Vector" d="M490 34.85L488.1 32.23L490.72 30.32C491.05 30.08 491.13 29.62 490.89 29.29C490.65 28.96 490.18 28.88 489.85 29.12L487.23 31.02L485.33 28.4C485.09 28.07 484.62 28 484.29 28.24C483.96 28.48 483.88 28.95 484.12 29.28L486.03 31.9L483.41 33.8C483.08 34.04 483 34.51 483.24 34.84C483.48 35.17 483.95 35.24 484.28 35L486.9 33.1L488.8 35.72C489.04 36.05 489.51 36.12 489.84 35.88C490.18 35.64 490.25 35.18 490 34.85Z" fill="#FFFFFF" fill-opacity="1.000000" fill-rule="nonzero"/>
	</g>
	<g opacity="0.100000">
		<path id="Vector" d="M114.77 61.75L114.77 118.51L171.53 118.51L171.53 61.75L114.77 61.75Z" stroke="#FFFFFF" stroke-opacity="1.000000" stroke-width="2.000000"/>
	</g>
	<g opacity="0.100000">
		<path id="Vector" d="M143.14 33.37L86.39 33.37L86.39 90.13L143.14 90.13L143.14 33.37Z" fill="#FFFFFF" fill-opacity="1.000000" fill-rule="evenodd"/>
	</g>
	<g opacity="0.100000">
		<path id="Vector" d="M527.96 434.82L455.15 497.4C437.87 477.29 440.16 446.98 460.27 429.7C480.38 412.42 510.68 414.72 527.96 434.82Z" fill="#FFFFFF" fill-opacity="1.000000" fill-rule="nonzero"/>
	</g>
	<path id="Vector" d="M97.1 757.78C94.96 757.78 93.21 756.03 93.21 753.89C93.21 751.74 94.96 749.99 97.1 749.99C99.25 749.99 101 751.74 101 753.89C101 756.05 99.25 757.78 97.1 757.78ZM101 777.19C101 775.04 99.25 773.29 97.1 773.29C94.96 773.29 93.21 775.04 93.21 777.19C93.21 779.33 94.96 781.08 97.1 781.08C99.25 781.08 101 779.35 101 777.19ZM101 800.49C101 798.34 99.25 796.59 97.1 796.59C94.96 796.59 93.21 798.34 93.21 800.49C93.21 802.63 94.96 804.38 97.1 804.38C99.25 804.39 101 802.64 101 800.49ZM101 823.8C101 821.65 99.25 819.9 97.1 819.9C94.96 819.9 93.21 821.65 93.21 823.8C93.21 825.94 94.96 827.69 97.1 827.69C99.25 827.69 101 825.94 101 823.8ZM101 847.1C101 844.95 99.25 843.2 97.1 843.2C94.96 843.2 93.21 844.95 93.21 847.1C93.21 849.24 94.96 850.99 97.1 850.99C99.25 850.99 101 849.24 101 847.1ZM77.7 753.89C77.7 751.74 75.95 749.99 73.8 749.99C71.66 749.99 69.91 751.74 69.91 753.89C69.91 756.03 71.66 757.78 73.8 757.78C75.95 757.78 77.7 756.05 77.7 753.89ZM77.7 777.19C77.7 775.04 75.95 773.29 73.8 773.29C71.66 773.29 69.91 775.04 69.91 777.19C69.91 779.33 71.66 781.08 73.8 781.08C75.95 781.08 77.7 779.35 77.7 777.19ZM77.7 800.49C77.7 798.34 75.95 796.59 73.8 796.59C71.66 796.59 69.91 798.34 69.91 800.49C69.91 802.63 71.66 804.38 73.8 804.38C75.95 804.39 77.7 802.64 77.7 800.49ZM77.7 823.8C77.7 821.65 75.95 819.9 73.8 819.9C71.66 819.9 69.91 821.65 69.91 823.8C69.91 825.94 71.66 827.69 73.8 827.69C75.95 827.69 77.7 825.94 77.7 823.8ZM77.7 847.1C77.7 844.95 75.95 843.2 73.8 843.2C71.66 843.2 69.91 844.95 69.91 847.1C69.91 849.24 71.66 850.99 73.8 850.99C75.95 850.99 77.7 849.24 77.7 847.1ZM54.38 753.89C54.38 751.74 52.63 749.99 50.49 749.99C48.34 749.99 46.59 751.74 46.59 753.89C46.59 756.03 48.34 757.78 50.49 757.78C52.65 757.78 54.38 756.05 54.38 753.89ZM54.38 777.19C54.38 775.04 52.63 773.29 50.49 773.29C48.34 773.29 46.59 775.04 46.59 777.19C46.59 779.33 48.34 781.08 50.49 781.08C52.65 781.08 54.38 779.35 54.38 777.19ZM54.38 800.49C54.38 798.34 52.63 796.59 50.49 796.59C48.34 796.59 46.59 798.34 46.59 800.49C46.59 802.63 48.34 804.38 50.49 804.38C52.65 804.39 54.38 802.64 54.38 800.49ZM54.38 823.8C54.38 821.65 52.63 819.9 50.49 819.9C48.34 819.9 46.59 821.65 46.59 823.8C46.59 825.94 48.34 827.69 50.49 827.69C52.65 827.69 54.38 825.94 54.38 823.8ZM54.38 847.1C54.38 844.95 52.63 843.2 50.49 843.2C48.34 843.2 46.59 844.95 46.59 847.1C46.59 849.24 48.34 850.99 50.49 850.99C52.65 850.99 54.38 849.24 54.38 847.1ZM31.08 753.89C31.08 751.74 29.33 749.99 27.19 749.99C25.04 749.99 23.29 751.74 23.29 753.89C23.29 756.03 25.04 757.78 27.19 757.78C29.35 757.78 31.08 756.05 31.08 753.89ZM31.08 777.19C31.08 775.04 29.33 773.29 27.19 773.29C25.04 773.29 23.29 775.04 23.29 777.19C23.29 779.33 25.04 781.08 27.19 781.08C29.35 781.08 31.08 779.35 31.08 777.19ZM31.08 800.49C31.08 798.34 29.33 796.59 27.19 796.59C25.04 796.59 23.29 798.34 23.29 800.49C23.29 802.63 25.04 804.38 27.19 804.38C29.35 804.39 31.08 802.64 31.08 800.49ZM31.08 823.8C31.08 821.65 29.33 819.9 27.19 819.9C25.04 819.9 23.29 821.65 23.29 823.8C23.29 825.94 25.04 827.69 27.19 827.69C29.35 827.69 31.08 825.94 31.08 823.8ZM31.08 847.1C31.08 844.95 29.33 843.2 27.19 843.2C25.04 843.2 23.29 844.95 23.29 847.1C23.29 849.24 25.04 850.99 27.19 850.99C29.35 850.99 31.08 849.24 31.08 847.1ZM7.78 753.89C7.78 751.74 6.04 749.99 3.89 749.99C1.74 749.99 0 751.74 0 753.89C0 756.03 1.74 757.78 3.89 757.78C6.04 757.78 7.78 756.05 7.78 753.89ZM7.78 777.19C7.78 775.04 6.04 773.29 3.89 773.29C1.74 773.29 0 775.04 0 777.19C0 779.33 1.74 781.08 3.89 781.08C6.04 781.08 7.78 779.35 7.78 777.19ZM7.78 800.49C7.78 798.34 6.04 796.59 3.89 796.59C1.74 796.59 0 798.34 0 800.49C0 802.63 1.74 804.38 3.89 804.38C6.04 804.38 7.78 802.64 7.78 800.49ZM7.78 823.8C7.78 821.65 6.04 819.9 3.89 819.9C1.74 819.9 0 821.65 0 823.8C0 825.94 1.74 827.69 3.89 827.69C6.04 827.69 7.78 825.94 7.78 823.8ZM7.78 847.1C7.78 844.95 6.04 843.2 3.89 843.2C1.74 843.2 0 844.95 0 847.1C0 849.24 1.74 850.99 3.89 850.99C6.04 850.99 7.78 849.24 7.78 847.1Z" fill="#6C5FBC" fill-opacity="1.000000" fill-rule="nonzero"/>
</svg>
