<svg width="25.570312" height="30.017578" viewBox="0 0 25.5703 30.0176" fill="none" xmlns="http://www.w3.org/2000/svg" xmlns:xlink="http://www.w3.org/1999/xlink">
	<desc>
			Created with Pixso.
	</desc>
	<defs/>
	<path id="path4" d="M25.03 23.39C24.57 24.44 24.03 25.4 23.4 26.29C22.54 27.5 21.84 28.34 21.29 28.8C20.46 29.57 19.56 29.96 18.59 29.98C17.9 29.98 17.07 29.78 16.1 29.39C15.12 29 14.23 28.8 13.41 28.8C12.55 28.8 11.63 29 10.65 29.39C9.66 29.78 8.87 29.99 8.26 30.01C7.34 30.05 6.41 29.65 5.5 28.8C4.91 28.3 4.18 27.43 3.3 26.2C2.35 24.89 1.58 23.37 0.97 21.63C0.32 19.76 0 17.95 0 16.19C0 14.18 0.43 12.44 1.32 10.99C2.01 9.82 2.93 8.9 4.08 8.22C5.23 7.55 6.48 7.2 7.82 7.18C8.55 7.18 9.51 7.41 10.71 7.85C11.9 8.29 12.67 8.51 13 8.51C13.25 8.51 14.1 8.25 15.54 7.73C16.91 7.24 18.06 7.04 19 7.12C21.56 7.32 23.47 8.32 24.75 10.11C22.47 11.48 21.34 13.4 21.36 15.86C21.38 17.77 22.08 19.37 23.46 20.63C24.09 21.22 24.79 21.67 25.57 22C25.4 22.48 25.22 22.94 25.03 23.39ZM19.17 0.6C19.17 2.1 18.62 3.5 17.51 4.8C16.18 6.34 14.56 7.23 12.81 7.09C12.79 6.91 12.78 6.72 12.78 6.52C12.78 5.08 13.41 3.54 14.54 2.28C15.1 1.64 15.82 1.11 16.68 0.68C17.55 0.27 18.37 0.03 19.14 0C19.16 0.2 19.17 0.4 19.17 0.6L19.17 0.6Z" fill="#323142" fill-opacity="1.000000" fill-rule="nonzero"/>
</svg>
