<svg width="22.577148" height="17.332031" viewBox="0 0 22.5771 17.332" fill="none" xmlns="http://www.w3.org/2000/svg" xmlns:xlink="http://www.w3.org/1999/xlink">
	<desc>
			Created with Pixso.
	</desc>
	<defs/>
	<path id="Icon" d="M0.23 4.47C-0.11 7.46 -0.1 10.91 0.37 13.89C0.63 15.53 2.04 16.8 3.78 16.94L5.59 17.09C9.38 17.41 13.19 17.41 16.97 17.09L18.79 16.94C20.53 16.8 21.93 15.53 22.19 13.89C22.66 10.91 22.68 7.46 22.34 4.47C22.3 4.13 22.25 3.78 22.19 3.44C21.93 1.79 20.53 0.53 18.79 0.38L16.97 0.23C13.19 -0.08 9.38 -0.08 5.59 0.23L3.78 0.38C2.04 0.53 0.63 1.79 0.37 3.44C0.32 3.78 0.27 4.13 0.23 4.47ZM5.75 1.95C9.43 1.64 13.14 1.64 16.82 1.95L18.63 2.1C19.54 2.17 20.27 2.83 20.41 3.69C20.42 3.78 20.44 3.87 20.45 3.96L13.77 7.51C12.22 8.33 10.35 8.33 8.8 7.51L2.12 3.96C2.13 3.87 2.14 3.78 2.16 3.69C2.29 2.83 3.03 2.17 3.93 2.1L5.75 1.95ZM20.67 5.81C20.91 8.42 20.82 11.04 20.41 13.63C20.27 14.49 19.54 15.15 18.63 15.22L16.82 15.38C13.14 15.68 9.43 15.68 5.75 15.38L3.93 15.22C3.03 15.15 2.29 14.49 2.16 13.63C1.75 11.04 1.66 8.42 1.9 5.81L7.93 9.01C10.01 10.12 12.55 10.12 14.64 9.01L20.67 5.81Z" fill="#C2C3CB" fill-opacity="1.000000" fill-rule="evenodd"/>
</svg>
