<svg width="18.356445" height="23.715820" viewBox="0 0 18.3564 23.7158" fill="none" xmlns="http://www.w3.org/2000/svg" xmlns:xlink="http://www.w3.org/1999/xlink">
	<desc>
			Created with Pixso.
	</desc>
	<defs/>
	<path id="Icon" d="M3.41 6.72L3.8 10.2L2.96 10.27C1.63 10.37 0.55 11.37 0.33 12.69C-0.12 15.43 -0.12 18.23 0.33 20.97C0.55 22.29 1.63 23.28 2.96 23.39L4.8 23.54C7.71 23.77 10.64 23.77 13.55 23.54L15.39 23.39C16.72 23.28 17.8 22.29 18.02 20.97C18.46 18.23 18.46 15.43 18.02 12.69C17.8 11.37 16.72 10.37 15.39 10.27L14.54 10.2L14.93 6.72C14.98 6.27 14.98 5.82 14.93 5.37L14.9 5.12C14.61 2.46 12.51 0.35 9.85 0.03C9.4 -0.02 8.95 -0.02 8.5 0.03C5.84 0.35 3.74 2.46 3.44 5.12L3.41 5.37C3.37 5.82 3.37 6.27 3.41 6.72ZM9.63 1.86C9.33 1.83 9.02 1.83 8.71 1.86C6.9 2.08 5.47 3.51 5.27 5.33L5.24 5.58C5.21 5.89 5.21 6.2 5.24 6.52L5.64 10.06C7.99 9.91 10.35 9.91 12.71 10.06L13.1 6.52C13.14 6.2 13.14 5.89 13.1 5.58L13.07 5.33C12.87 3.51 11.45 2.08 9.63 1.86ZM4.94 11.96C7.76 11.73 10.59 11.73 13.41 11.96L15.24 12.1C15.73 12.14 16.12 12.51 16.2 12.99C16.62 15.53 16.62 18.13 16.2 20.67C16.12 21.15 15.73 21.52 15.24 21.56L13.41 21.7C10.59 21.93 7.76 21.93 4.94 21.7L3.11 21.56C2.62 21.52 2.23 21.15 2.15 20.67C1.73 18.13 1.73 15.53 2.15 12.99C2.23 12.51 2.62 12.14 3.11 12.1L4.94 11.96ZM9.17 14.99C8.16 14.99 7.33 15.81 7.33 16.83C7.33 17.85 8.16 18.67 9.17 18.67C10.19 18.67 11.01 17.85 11.01 16.83C11.01 15.81 10.19 14.99 9.17 14.99Z" fill="#C2C3CB" fill-opacity="1.000000" fill-rule="evenodd"/>
</svg>
