<svg width="21.728027" height="22.199219" viewBox="0 0 21.728 22.1992" fill="none" xmlns="http://www.w3.org/2000/svg" xmlns:xlink="http://www.w3.org/1999/xlink">
	<desc>
			Created with Pixso.
	</desc>
	<defs/>
	<path id="G" d="M15 5.33Q15.71 5.94 16.18 6.81L21.2 6.81Q20.58 4.87 19.36 3.45Q18.55 2.5 17.46 1.79Q17.06 1.53 16.65 1.3Q14.22 -0.01 11.08 -0.01Q8.7 -0.01 6.66 0.83Q6.03 1.08 5.43 1.42Q4.22 2.09 3.25 3.02Q2.2 4.04 1.44 5.37Q1.21 5.78 1.01 6.2Q-3.7e-5 8.42 -3.7e-5 11.11Q-3.7e-5 13.86 1.06 16.11Q1.24 16.48 1.44 16.84Q2.17 18.1 3.17 19.09Q4.17 20.07 5.43 20.78Q5.92 21.05 6.43 21.27Q8.57 22.19 11.11 22.19Q13.65 22.19 15.75 21.23Q15.96 21.13 16.17 21.02Q17.92 20.12 19.17 18.75Q19.53 18.36 19.85 17.92Q20.85 16.58 21.37 15.07Q21.59 14.41 21.72 13.72L21.72 9.93L9.96 9.93L9.96 13.26L17.43 13.26Q17.01 15.25 15.82 16.5Q15.6 16.73 15.35 16.94Q15.15 17.1 14.95 17.24Q13.46 18.26 11.27 18.26Q9.24 18.26 7.72 17.4Q7.15 17.08 6.68 16.65Q5.87 15.93 5.33 14.91Q4.48 13.29 4.48 11.11Q4.48 8.99 5.31 7.37Q5.88 6.29 6.74 5.54Q7.16 5.17 7.66 4.89Q7.84 4.78 8.02 4.69Q9.39 4.01 11.08 4.01Q12.82 4.01 14.13 4.73Q14.6 4.99 15 5.33Z" fill="#323142" fill-opacity="1.000000" fill-rule="evenodd"/>
</svg>
